<svg version="1.1" viewBox="0.0 0.0 946.7454068241469 158.31233595800524" fill="none" stroke="none"
     stroke-linecap="square" stroke-miterlimit="10"
     xmlns="http://www.w3.org/2000/svg"><clipPath id="p.0"><path d="m0 0l946.7454 0l0 158.31233l-946.7454 0l0 -158.31233z" clip-rule="nonzero"/></clipPath><g clip-path="url(#p.0)"><path fill="#000000" fill-opacity="0.0" d="m0 0l946.7454 0l0 158.31233l-946.7454 0z" fill-rule="evenodd"/><path fill="#434343" d="m4.64042 15.115485l404.40945 0l0 118.29922l-404.40945 0z" fill-rule="evenodd"/><path stroke="#ffffff" stroke-width="1.0" stroke-linejoin="round" stroke-linecap="butt" d="m4.64042 15.115485l404.40945 0l0 118.29922l-404.40945 0z" fill-rule="evenodd"/><path fill="#000000" fill-opacity="0.0" d="m4.64042 74.24209l404.40945 0" fill-rule="evenodd"/><path stroke="#bf9000" stroke-width="3.0" stroke-linejoin="round" stroke-linecap="butt" stroke-dasharray="12.0,9.0" d="m4.64042 74.24209l404.40945 0" fill-rule="evenodd"/><path fill="#000000" fill-opacity="0.0" d="m4.643693 133.36726l404.40942 0" fill-rule="evenodd"/><path stroke="#bf9000" stroke-width="3.0" stroke-linejoin="round" stroke-linecap="butt" d="m4.643693 133.36726l404.40942 0" fill-rule="evenodd"/><path fill="#000000" fill-opacity="0.0" d="m4.643693 15.115485l404.40942 0" fill-rule="evenodd"/><path stroke="#bf9000" stroke-width="3.0" stroke-linejoin="round" stroke-linecap="butt" d="m4.643693 15.115485l404.40942 0" fill-rule="evenodd"/><path fill="#000000" fill-opacity="0.0" d="m133.73235 108.7l139.11812 0" fill-rule="evenodd"/><path stroke="#785ef0" stroke-width="3.0" stroke-linejoin="round" stroke-linecap="butt" stroke-dasharray="12.0,9.0" d="m133.73236 108.7l121.11809 0" fill-rule="evenodd"/><path fill="#785ef0" stroke="#785ef0" stroke-width="3.0" stroke-linecap="butt" d="m254.85045 113.6552l13.614304 -4.9552l-13.614304 -4.9551926z" fill-rule="evenodd"/><path fill="#5f5ba5" d="m106.56411 90.10143l0.22996521 0.05819702l0.23335266 0.11639404l0.17247772 0.114730835l0.114982605 0.23112488l0.057495117 0.34751892l0 0.46224976l-4.626442 0.2893219l-4.626442 0.17292786l-4.683937 0.11639404l-4.626442 0.05819702l-9.313759 0.114730835l-4.683937 0.11639404l-4.6839294 0.17292786l0 -0.5786438l0.114982605 -0.46224976l0.114982605 -0.40405273l0.22997284 -0.2893219l0.29084015 -0.23278809l0.34833527 -0.114730835l0.40245056 -0.114730835l0.520813 0l16.946709 -0.05819702l16.946716 -0.11639404zm-6.1313934 3.9324493l0.4633255 2.5457l0.34833527 2.602234l0.22996521 2.602234l0.057495117 2.5456924l-0.057495117 2.602234l-0.22996521 2.602234l-0.34833527 2.602234l-0.4633255 2.603897l-5.610573 0.056533813l-5.4347153 -0.056533813l-9.892067 -0.11639404l-9.831192 -0.23112488l-1.0991135 0l-1.0991211 -0.11639404l-0.520813 -0.056533813l-0.520813 -0.23278809l-0.46331787 -0.23112488l-0.40245056 -0.34751892l-0.29084015 -0.40405273l-0.22997284 -0.46224976l-0.17585754 -0.46391296l-0.057495117 -0.5769806l0 -14.34304l0.057495117 -0.6368408l0.23335266 -0.5786438l0.28746033 -0.46224976l0.40583038 -0.40571594l0.46331787 -0.3458557l0.6357956 -0.23278809l0.6358032 -0.114730835l0.8082733 -0.05819702l9.198776 -0.17292786l9.252884 -0.11639404zm12.147797 -1.2138214l0.22996521 0.05819702l0.22997284 0.056533813l0.23335266 0.11639404l0.17247772 0.11639404l0.40582275 0.40405273l0.40583038 0.5204468l0.34495544 0.46224976l0.6357956 1.0408936l0.4633255 1.0425568l0.40582275 1.0974274l0.28746033 1.0990906l0.23335266 1.1572876l0.17247772 1.1572876l0.17247772 1.1556244l0.118370056 1.6195297l0 1.5031433l-0.118370056 1.5630035l-0.22996521 1.5031433l-0.3483429 1.5031433l-0.520813 1.4466095l-0.6357956 1.4449463l-0.7507782 1.3884125l-0.29084778 0.40571594l-0.28746033 0.40405273l-0.29084015 0.2893219l-0.40245056 0.23112488l-0.34833527 0.11639404l-0.46331787 0.114730835l-1.041626 0l-2.1948547 -0.2893219l-2.1982422 -0.23112488l-4.568947 -0.3458557l0.45993805 -2.660431l0.34833527 -2.660431l0.17247772 -2.660431l0.057495117 -2.603897l-0.057495117 -2.6604233l-0.17247772 -2.660431l-0.34833527 -2.660431l-0.45993805 -2.660431l5.4922104 -0.5204468l2.083252 -0.17292786l0.98413086 -0.05819702l1.041626 -0.17292786zm-44.306305 -2.02359l-0.057495117 0.40405273l-0.057487488 0.2893219l-0.114982605 0.2893219l-0.114990234 0.23112488l-0.23334503 0.17292786l-0.28746796 0.17459106l-0.29084015 0.114730835l-0.34495544 0.05819702l-0.40583038 0.11639404l-0.40582275 0.114730835l-0.40245056 0.17292786l-0.34833527 0.17459106l-0.6357956 0.46224976l-0.520813 0.5204468l-0.4633217 0.69503784l-0.34495544 0.69337463l-0.11836624 0.40405273l-0.114982605 0.40571594l-0.057495117 0.40405273l0 0.40571594l-0.057491302 7.2297134l0.057491302 7.228058l0.057495117 0.8097687l0.17247391 0.8097687l0.34833908 0.69503784l0.40582657 0.6351776l0.5783043 0.5786438l0.28746033 0.23112488l0.34833527 0.23112488l0.34495544 0.17459106l0.40583038 0.17292786l0.40583038 0.11639404l0.40582275 0.114730835l0.40245056 0.05819702l0.29084015 0.17292786l0.28746796 0.11639404l0.23334503 0.23112488l0.17247772 0.23112488l0.114982605 0.2893219l0.057495117 0.2893219l0.057495117 0.34751892l-0.5783081 0.056533813l-0.5783005 -0.056533813l-0.5783081 -0.11639404l-0.5783081 -0.17292786l-0.5783005 -0.23112488l-0.520813 -0.23112488l-0.520813 -0.2893219l-0.51743317 -0.40571594l-0.4633217 -0.34751892l-0.40582657 -0.46224976l-0.40583038 -0.46224976l-0.34495163 -0.5204468l-0.29084396 -0.5786438l-0.28746414 -0.5204468l-0.17585754 -0.6368408l-0.11498642 -0.6351776l-0.34495163 -1.9670563l-0.17586136 -1.9653931l-0.114982605 -2.0252533l-0.057491302 -1.9653931l0.057491302 -2.0252457l0.114982605 -1.9653931l0.23335266 -2.0252533l0.28746033 -1.9653931l0.11498642 -0.5786438l0.17585754 -0.5786438l0.22996902 -0.5786438l0.29084396 -0.5204468l0.34495544 -0.5204468l0.34833527 -0.40405273l0.40583038 -0.46391296l0.45993805 -0.3458557l0.4633217 -0.34751892l0.520813 -0.34751892l0.520813 -0.23112488l0.5783005 -0.23112488l0.5783081 -0.17292786l0.6357956 -0.11639404l0.5783081 -0.05819702l0.6357956 -0.056533813zm1.8532867 25.561745l4.6839294 0.11639404l4.626442 0.05819702l9.310379 0.05819702l4.687317 0.056533813l4.626442 0.11639404l4.683937 0.17292786l4.683937 0.34751892l-0.22997284 1.2138214l-13.53437 0l-10.757835 -0.056533813l-10.70034 0l-0.520813 -0.05819702l-0.40244293 -0.05819702l-0.40583038 -0.114730835l-0.29084015 -0.17459106l-0.22997284 -0.2893219l-0.114982605 -0.34751892l-0.114982605 -0.46224976l0 -0.5786438zm37.24489 -29.958107l-0.22997284 0.05819702l-0.22996521 0.17292786l-0.34833527 0.46224976l-0.114990234 0.17459106l0 0.23112488l-0.057487488 0.46224976l-1.5049515 0l-15.269287 0.05819702l-7.63295 0.05819702l-7.6363373 0.056533813l-2.083252 0.05819702l-2.1373596 0.11639404l-2.083252 0.23112488l-1.041626 0.17292786l-1.041626 0.23112488l-0.5783081 0.11639404l-0.5783081 0.17292786l-0.5783005 0.23112488l-0.5208168 0.2893219l-0.520813 0.23112488l-0.45993805 0.34751892l-0.46331787 0.34751892l-0.4633217 0.34751892l-0.40583038 0.40405273l-0.34495163 0.46224976l-0.34833527 0.46391296l-0.29084396 0.46224976l-0.28746414 0.5786438l-0.22996902 0.5204468l-0.23334885 0.5769806l-0.17247772 0.6368408l-0.23335266 1.0408936l-0.22996902 1.0408936l-0.29084396 2.1399841l-0.22996902 2.1399841l-0.057491302 2.1399765l0.057491302 2.1399841l0.11498642 2.1399841l0.23334885 2.1399841l0.28746414 2.1399841l0.17585754 0.75157166l0.17247772 0.69503784l0.22996902 0.69337463l0.23334885 0.6368408l0.28746414 0.5769806l0.34833527 0.5786438l0.40582657 0.5786438l0.40244675 0.46224976l0.4633217 0.46391296l0.520813 0.46224976l0.520813 0.34751892l0.6357994 0.3458557l0.5783005 0.34751892l0.6358032 0.2893219l0.6932907 0.23112488l0.754158 0.17292786l1.3865814 0.2893219l1.4474564 0.23112488l1.3865814 0.11639404l1.4474487 0.05819702l11.217773 0.114730835l11.221153 0.05819702l12.147789 0l-0.23334503 0.46224976l0.6391754 0.75157166l0.28746033 0.29097748l0.114990234 0.056541443l0.057487488 0.058189392l0.40583038 -0.23112488l0.40583038 -0.3475113l0.9232559 -0.8679657l5.20813 -0.056533813l2.7156677 0l2.7765427 0.056533813l1.2141037 0l1.2174835 -0.114730835l1.1566086 -0.2893219l1.1566162 -0.34751892l1.041626 -0.5204468l0.98075104 -0.5786438l0.92663574 -0.69337463l0.86576843 -0.8097687l0.75416565 -0.8679657l0.6932831 -0.9244995l0.5783081 -1.0408936l0.46331787 -1.0990906l0.34495544 -1.1572876l0.23335266 -1.2138214l0.114990234 -1.2736816l0 -1.3285522l-0.114990234 -1.6195374l0 -1.6777344l0.057495117 -3.297264l0.057495117 -2.081787l-0.057495117 -1.0990906l-0.057495117 -1.0408936l-0.1724701 -1.0408936l-0.23335266 -0.98269653l-0.3483429 -1.0408936l-0.4024353 -0.98435974l-0.46333313 -0.69337463l-0.40582275 -0.69337463l-0.46331787 -0.6368408l-0.51742554 -0.5786438l-0.5208206 -0.5204468l-1.1566086 -0.9244995l-0.63918304 -0.40571594l-0.6357956 -0.34751892l-0.6932907 -0.2876587l-1.3865814 -0.46391296l-0.754158 -0.17292786l-0.80828094 -0.11639404l-0.81165314 -0.056533813l-5.9555283 0l-5.0897675 0.114730835l-0.5783005 0l-0.23335266 -0.05819702l-0.22997284 -0.056533813l-0.22996521 -0.11639404l-0.17585754 -0.17292786l-0.114990234 -0.23112488l-0.057487488 -0.34751892l-0.114990234 -0.17292786l-0.23334503 -0.23278809l-0.28746796 -0.114730835l-0.29084015 -0.05819702z" fill-rule="evenodd"/><path stroke="#000000" stroke-width="1.0" stroke-linejoin="round" stroke-linecap="round" d="m106.56411 90.10143l0.22996521 0.05819702l0.23335266 0.11639404l0.17247772 0.114730835l0.114982605 0.23112488l0.057495117 0.34751892l0 0.46224976l-4.626442 0.2893219l-4.626442 0.17292786l-4.683937 0.11639404l-4.626442 0.05819702l-9.313759 0.114730835l-4.683937 0.11639404l-4.6839294 0.17292786l0 -0.5786438l0.114982605 -0.46224976l0.114982605 -0.40405273l0.22997284 -0.2893219l0.29084015 -0.23278809l0.34833527 -0.114730835l0.40245056 -0.114730835l0.520813 0l16.946709 -0.05819702l16.946716 -0.11639404zm-6.1313934 3.9324493l0.4633255 2.5457l0.34833527 2.602234l0.22996521 2.602234l0.057495117 2.5456924l-0.057495117 2.602234l-0.22996521 2.602234l-0.34833527 2.602234l-0.4633255 2.603897l-5.610573 0.056533813l-5.4347153 -0.056533813l-9.892067 -0.11639404l-9.831192 -0.23112488l-1.0991135 0l-1.0991211 -0.11639404l-0.520813 -0.056533813l-0.520813 -0.23278809l-0.46331787 -0.23112488l-0.40245056 -0.34751892l-0.29084015 -0.40405273l-0.22997284 -0.46224976l-0.17585754 -0.46391296l-0.057495117 -0.5769806l0 -14.34304l0.057495117 -0.6368408l0.23335266 -0.5786438l0.28746033 -0.46224976l0.40583038 -0.40571594l0.46331787 -0.3458557l0.6357956 -0.23278809l0.6358032 -0.114730835l0.8082733 -0.05819702l9.198776 -0.17292786l9.252884 -0.11639404zm12.147797 -1.2138214l0.22996521 0.05819702l0.22997284 0.056533813l0.23335266 0.11639404l0.17247772 0.11639404l0.40582275 0.40405273l0.40583038 0.5204468l0.34495544 0.46224976l0.6357956 1.0408936l0.4633255 1.0425568l0.40582275 1.0974274l0.28746033 1.0990906l0.23335266 1.1572876l0.17247772 1.1572876l0.17247772 1.1556244l0.118370056 1.6195297l0 1.5031433l-0.118370056 1.5630035l-0.22996521 1.5031433l-0.3483429 1.5031433l-0.520813 1.4466095l-0.6357956 1.4449463l-0.7507782 1.3884125l-0.29084778 0.40571594l-0.28746033 0.40405273l-0.29084015 0.2893219l-0.40245056 0.23112488l-0.34833527 0.11639404l-0.46331787 0.114730835l-1.041626 0l-2.1948547 -0.2893219l-2.1982422 -0.23112488l-4.568947 -0.3458557l0.45993805 -2.660431l0.34833527 -2.660431l0.17247772 -2.660431l0.057495117 -2.603897l-0.057495117 -2.6604233l-0.17247772 -2.660431l-0.34833527 -2.660431l-0.45993805 -2.660431l5.4922104 -0.5204468l2.083252 -0.17292786l0.98413086 -0.05819702l1.041626 -0.17292786zm-44.306305 -2.02359l-0.057495117 0.40405273l-0.057487488 0.2893219l-0.114982605 0.2893219l-0.114990234 0.23112488l-0.23334503 0.17292786l-0.28746796 0.17459106l-0.29084015 0.114730835l-0.34495544 0.05819702l-0.40583038 0.11639404l-0.40582275 0.114730835l-0.40245056 0.17292786l-0.34833527 0.17459106l-0.6357956 0.46224976l-0.520813 0.5204468l-0.4633217 0.69503784l-0.34495544 0.69337463l-0.11836624 0.40405273l-0.114982605 0.40571594l-0.057495117 0.40405273l0 0.40571594l-0.057491302 7.2297134l0.057491302 7.228058l0.057495117 0.8097687l0.17247391 0.8097687l0.34833908 0.69503784l0.40582657 0.6351776l0.5783043 0.5786438l0.28746033 0.23112488l0.34833527 0.23112488l0.34495544 0.17459106l0.40583038 0.17292786l0.40583038 0.11639404l0.40582275 0.114730835l0.40245056 0.05819702l0.29084015 0.17292786l0.28746796 0.11639404l0.23334503 0.23112488l0.17247772 0.23112488l0.114982605 0.2893219l0.057495117 0.2893219l0.057495117 0.34751892l-0.5783081 0.056533813l-0.5783005 -0.056533813l-0.5783081 -0.11639404l-0.5783081 -0.17292786l-0.5783005 -0.23112488l-0.520813 -0.23112488l-0.520813 -0.2893219l-0.51743317 -0.40571594l-0.4633217 -0.34751892l-0.40582657 -0.46224976l-0.40583038 -0.46224976l-0.34495163 -0.5204468l-0.29084396 -0.5786438l-0.28746414 -0.5204468l-0.17585754 -0.6368408l-0.11498642 -0.6351776l-0.34495163 -1.9670563l-0.17586136 -1.9653931l-0.114982605 -2.0252533l-0.057491302 -1.9653931l0.057491302 -2.0252457l0.114982605 -1.9653931l0.23335266 -2.0252533l0.28746033 -1.9653931l0.11498642 -0.5786438l0.17585754 -0.5786438l0.22996902 -0.5786438l0.29084396 -0.5204468l0.34495544 -0.5204468l0.34833527 -0.40405273l0.40583038 -0.46391296l0.45993805 -0.3458557l0.4633217 -0.34751892l0.520813 -0.34751892l0.520813 -0.23112488l0.5783005 -0.23112488l0.5783081 -0.17292786l0.6357956 -0.11639404l0.5783081 -0.05819702l0.6357956 -0.056533813zm1.8532867 25.561745l4.6839294 0.11639404l4.626442 0.05819702l9.310379 0.05819702l4.687317 0.056533813l4.626442 0.11639404l4.683937 0.17292786l4.683937 0.34751892l-0.22997284 1.2138214l-13.53437 0l-10.757835 -0.056533813l-10.70034 0l-0.520813 -0.05819702l-0.40244293 -0.05819702l-0.40583038 -0.114730835l-0.29084015 -0.17459106l-0.22997284 -0.2893219l-0.114982605 -0.34751892l-0.114982605 -0.46224976l0 -0.5786438zm37.24489 -29.958107l-0.22997284 0.05819702l-0.22996521 0.17292786l-0.34833527 0.46224976l-0.114990234 0.17459106l0 0.23112488l-0.057487488 0.46224976l-1.5049515 0l-15.269287 0.05819702l-7.63295 0.05819702l-7.6363373 0.056533813l-2.083252 0.05819702l-2.1373596 0.11639404l-2.083252 0.23112488l-1.041626 0.17292786l-1.041626 0.23112488l-0.5783081 0.11639404l-0.5783081 0.17292786l-0.5783005 0.23112488l-0.5208168 0.2893219l-0.520813 0.23112488l-0.45993805 0.34751892l-0.46331787 0.34751892l-0.4633217 0.34751892l-0.40583038 0.40405273l-0.34495163 0.46224976l-0.34833527 0.46391296l-0.29084396 0.46224976l-0.28746414 0.5786438l-0.22996902 0.5204468l-0.23334885 0.5769806l-0.17247772 0.6368408l-0.23335266 1.0408936l-0.22996902 1.0408936l-0.29084396 2.1399841l-0.22996902 2.1399841l-0.057491302 2.1399765l0.057491302 2.1399841l0.11498642 2.1399841l0.23334885 2.1399841l0.28746414 2.1399841l0.17585754 0.75157166l0.17247772 0.69503784l0.22996902 0.69337463l0.23334885 0.6368408l0.28746414 0.5769806l0.34833527 0.5786438l0.40582657 0.5786438l0.40244675 0.46224976l0.4633217 0.46391296l0.520813 0.46224976l0.520813 0.34751892l0.6357994 0.3458557l0.5783005 0.34751892l0.6358032 0.2893219l0.6932907 0.23112488l0.754158 0.17292786l1.3865814 0.2893219l1.4474564 0.23112488l1.3865814 0.11639404l1.4474487 0.05819702l11.217773 0.114730835l11.221153 0.05819702l12.147789 0l-0.23334503 0.46224976l0.6391754 0.75157166l0.28746033 0.29097748l0.114990234 0.056541443l0.057487488 0.058189392l0.40583038 -0.23112488l0.40583038 -0.3475113l0.9232559 -0.8679657l5.20813 -0.056533813l2.7156677 0l2.7765427 0.056533813l1.2141037 0l1.2174835 -0.114730835l1.1566086 -0.2893219l1.1566162 -0.34751892l1.041626 -0.5204468l0.98075104 -0.5786438l0.92663574 -0.69337463l0.86576843 -0.8097687l0.75416565 -0.8679657l0.6932831 -0.9244995l0.5783081 -1.0408936l0.46331787 -1.0990906l0.34495544 -1.1572876l0.23335266 -1.2138214l0.114990234 -1.2736816l0 -1.3285522l-0.114990234 -1.6195374l0 -1.6777344l0.057495117 -3.297264l0.057495117 -2.081787l-0.057495117 -1.0990906l-0.057495117 -1.0408936l-0.1724701 -1.0408936l-0.23335266 -0.98269653l-0.3483429 -1.0408936l-0.4024353 -0.98435974l-0.46333313 -0.69337463l-0.40582275 -0.69337463l-0.46331787 -0.6368408l-0.51742554 -0.5786438l-0.5208206 -0.5204468l-1.1566086 -0.9244995l-0.63918304 -0.40571594l-0.6357956 -0.34751892l-0.6932907 -0.2876587l-1.3865814 -0.46391296l-0.754158 -0.17292786l-0.80828094 -0.11639404l-0.81165314 -0.056533813l-5.9555283 0l-5.0897675 0.114730835l-0.5783005 0l-0.23335266 -0.05819702l-0.22997284 -0.056533813l-0.22996521 -0.11639404l-0.17585754 -0.17292786l-0.114990234 -0.23112488l-0.057487488 -0.34751892l-0.114990234 -0.17292786l-0.23334503 -0.23278809l-0.28746796 -0.114730835l-0.29084015 -0.05819702z" fill-rule="evenodd"/><path fill="#5f5ba5" d="m86.7837 94.034615l-9.253273 0.115356445l-9.197174 0.1740036l-0.8093643 0.057678223l-0.6359253 0.115364075l-0.6376343 0.23168182l-0.4624939 0.3470459l-0.40467834 0.4047165l-0.2890625 0.46240997l-0.23124695 0.5787201l-0.057807922 0.63640594l0 14.344109l0.057807922 0.5787277l0.17343903 0.46240234l0.23124695 0.46336365l0.28905487 0.40472412l0.40468597 0.3470459l0.4624939 0.23168182l0.5220032 0.23072052l0.52030945 0.058639526l1.0984192 0.115356445l1.0984268 0l9.833099 0.23072052l9.890907 0.11632538l5.4360046 0.057678223l5.6111374 -0.057678223l0.4624939 -2.603302l0.34687042 -2.6023407l0.23124695 -2.6032944l0.05781555 -2.6023407l-0.05781555 -2.5456238l-0.23124695 -2.6023407l-0.34687042 -2.603302l-0.4624939 -2.5446548z" fill-rule="evenodd"/><path stroke="#000000" stroke-width="1.0" stroke-linejoin="round" stroke-linecap="butt" d="m86.7837 94.034615l-9.253273 0.115356445l-9.197174 0.1740036l-0.8093643 0.057678223l-0.6359253 0.115364075l-0.6376343 0.23168182l-0.4624939 0.3470459l-0.40467834 0.4047165l-0.2890625 0.46240997l-0.23124695 0.5787201l-0.057807922 0.63640594l0 14.344109l0.057807922 0.5787277l0.17343903 0.46240234l0.23124695 0.46336365l0.28905487 0.40472412l0.40468597 0.3470459l0.4624939 0.23168182l0.5220032 0.23072052l0.52030945 0.058639526l1.0984192 0.115356445l1.0984268 0l9.833099 0.23072052l9.890907 0.11632538l5.4360046 0.057678223l5.6111374 -0.057678223l0.4624939 -2.603302l0.34687042 -2.6023407l0.23124695 -2.6032944l0.05781555 -2.6023407l-0.05781555 -2.5456238l-0.23124695 -2.6023407l-0.34687042 -2.603302l-0.4624939 -2.5446548z" fill-rule="evenodd"/><path fill="#ffffff" d="m111.99975 92.81986l-1.0412064 0.17370605l-0.98339844 0.057540894l-2.081726 0.17370605l-5.494377 0.52005005l0.46245575 2.6609726l0.3468399 2.659912l0.17410278 2.6609726l0.057800293 2.659912l-0.057800293 2.6034317l-0.17410278 2.659912l-0.3468399 2.659912l-0.46245575 2.6609726l4.5687866 0.34740448l2.198021 0.23125458l2.197342 0.28879547l1.0412064 0l0.46245575 -0.11508942l0.3468399 -0.11615753l0.40532684 -0.23125458l0.28903198 -0.28879547l0.2890396 -0.404953l0.28903198 -0.404953l0.75216675 -1.3885727l0.6358795 -1.4450455l0.5209427 -1.4461136l0.3468399 -1.5036545l0.23122406 -1.5036621l0.115615845 -1.5622711l0 -1.5036621l-0.115615845 -1.6187515l-0.17341614 -1.1573181l-0.17342377 -1.15625l-0.23122406 -1.1573181l-0.28971863 -1.0987015l-0.40464783 -1.0987091l-0.46245575 -1.041153l-0.6365509 -1.0411606l-0.34684753 -0.46250153l-0.40464783 -0.52005005l-0.40464783 -0.404953l-0.17409515 -0.11615753l-0.23123169 -0.11508942l-0.23122406 -0.05860901l-0.23123169 -0.057548523z" fill-rule="evenodd"/><path stroke="#000000" stroke-width="1.0" stroke-linejoin="round" stroke-linecap="round" d="m111.99975 92.81986l-1.0412064 0.17370605l-0.98339844 0.057540894l-2.081726 0.17370605l-5.494377 0.52005005l0.46245575 2.6609726l0.3468399 2.659912l0.17410278 2.6609726l0.057800293 2.659912l-0.057800293 2.6034317l-0.17410278 2.659912l-0.3468399 2.659912l-0.46245575 2.6609726l4.5687866 0.34740448l2.198021 0.23125458l2.197342 0.28879547l1.0412064 0l0.46245575 -0.11508942l0.3468399 -0.11615753l0.40532684 -0.23125458l0.28903198 -0.28879547l0.2890396 -0.404953l0.28903198 -0.404953l0.75216675 -1.3885727l0.6358795 -1.4450455l0.5209427 -1.4461136l0.3468399 -1.5036545l0.23122406 -1.5036621l0.115615845 -1.5622711l0 -1.5036621l-0.115615845 -1.6187515l-0.17341614 -1.1573181l-0.17342377 -1.15625l-0.23122406 -1.1573181l-0.28971863 -1.0987015l-0.40464783 -1.0987091l-0.46245575 -1.041153l-0.6365509 -1.0411606l-0.34684753 -0.46250153l-0.40464783 -0.52005005l-0.40464783 -0.404953l-0.17409515 -0.11615753l-0.23123169 -0.11508942l-0.23122406 -0.05860901l-0.23123169 -0.057548523z" fill-rule="evenodd"/><path fill="#ffffff" d="m106.043655 90.1017l-16.947403 0.11555481l-16.945679 0.05794525l-0.52077484 0l-0.40522766 0.11555481l-0.34661102 0.115448l-0.28969574 0.2313385l-0.23107147 0.2891693l-0.11553192 0.40460968l-0.11553955 0.46244812l0 0.5783386l4.685196 -0.17350006l4.685196 -0.11555481l9.31176 -0.11566925l4.6265717 -0.05783844l4.683464 -0.11577606l4.628296 -0.173172l4.626564 -0.28927612l0 -0.46255493l-0.058631897 -0.3467865l-0.11553192 -0.23122406l-0.17243958 -0.11555481l-0.23107147 -0.11577606l-0.23107147 -0.057724z" fill-rule="evenodd"/><path stroke="#000000" stroke-width="1.0" stroke-linejoin="round" stroke-linecap="round" d="m106.043655 90.1017l-16.947403 0.11555481l-16.945679 0.05794525l-0.52077484 0l-0.40522766 0.11555481l-0.34661102 0.115448l-0.28969574 0.2313385l-0.23107147 0.2891693l-0.11553192 0.40460968l-0.11553955 0.46244812l0 0.5783386l4.685196 -0.17350006l4.685196 -0.11555481l9.31176 -0.11566925l4.6265717 -0.05783844l4.683464 -0.11577606l4.628296 -0.173172l4.626564 -0.28927612l0 -0.46255493l-0.058631897 -0.3467865l-0.11553192 -0.23122406l-0.17243958 -0.11555481l-0.23107147 -0.11577606l-0.23107147 -0.057724z" fill-rule="evenodd"/><path fill="#ffffff" d="m70.12612 116.35955l0 0.5782471l0.115722656 0.46263885l0.11571503 0.34712982l0.23143005 0.2891693l0.28842926 0.17356873l0.40586853 0.11550903l0.4041443 0.057754517l0.52158356 0.058052063l10.6994095 0l10.758133 0.057754517l13.533592 0l0.23143005 -1.214447l-4.685631 -0.34712982l-4.6839066 -0.1735611l-4.626915 -0.115608215l-4.685631 -0.057754517l-9.310822 -0.058052063l-4.626915 -0.057754517l-4.6856384 -0.11551666z" fill-rule="evenodd"/><path stroke="#000000" stroke-width="1.0" stroke-linejoin="round" stroke-linecap="round" d="m70.12612 116.35955l0 0.5782471l0.115722656 0.46263885l0.11571503 0.34712982l0.23143005 0.2891693l0.28842926 0.17356873l0.40586853 0.11550903l0.4041443 0.057754517l0.52158356 0.058052063l10.6994095 0l10.758133 0.057754517l13.533592 0l0.23143005 -1.214447l-4.685631 -0.34712982l-4.6839066 -0.1735611l-4.626915 -0.115608215l-4.685631 -0.057754517l-9.310822 -0.058052063l-4.626915 -0.057754517l-4.6856384 -0.11551666z" fill-rule="evenodd"/><path fill="#ffffff" d="m68.275024 90.79573l-0.6365051 0.057769775l-0.57819366 0.057769775l-0.6361618 0.11553192l-0.57819366 0.1733017l-0.5785446 0.2310791l-0.5202408 0.2323227l-0.5205841 0.34661102l-0.4626274 0.34661102l-0.4626274 0.34786224l-0.40502167 0.46215057l-0.34670258 0.40563202l-0.3474121 0.5199127l-0.28909683 0.52117157l-0.23114014 0.5776825l-0.17352676 0.5789337l-0.11557007 0.5776825l-0.2894516 1.966629l-0.23148727 2.0243988l-0.11557007 1.966629l-0.057605743 2.0243988l0.057605743 1.966629l0.11557007 2.0243988l0.17352676 1.966629l0.3474121 1.966629l0.11557007 0.6354523l0.17352676 0.6367035l0.28910065 0.51992035l0.28909683 0.5789337l0.34705734 0.5199127l0.40502167 0.4634018l0.4046631 0.46214294l0.4626274 0.34786987l0.52023315 0.40437317l0.5209427 0.28884125l0.52023315 0.23233032l0.5782013 0.23107147l0.5785446 0.17330933l0.57819366 0.11553192l0.57855225 0.057769775l0.57819366 -0.057769775l-0.057609558 -0.34661102l-0.05796051 -0.29009247l-0.11592102 -0.28884125l-0.173172 -0.23107147l-0.23149109 -0.23107147l-0.28910065 -0.11553955l-0.28909302 -0.17456055l-0.40502167 -0.057769775l-0.4046631 -0.11553192l-0.40502167 -0.11553955l-0.40467072 -0.1733017l-0.34705353 -0.17330933l-0.34706116 -0.23107147l-0.28910065 -0.23233032l-0.5785446 -0.5776825l-0.4046669 -0.6367035l-0.34705734 -0.69447327l-0.17317581 -0.80875397l-0.058315277 -0.8100128l-0.057609558 -7.2298126l0.057609558 -7.2298126l0 -0.4043808l0.058315277 -0.40563202l0.11556625 -0.40437317l0.11557007 -0.4043808l0.34705734 -0.69447327l0.4626274 -0.69447327l0.52023315 -0.5199127l0.63651276 -0.4634018l0.34670258 -0.17330933l0.40502167 -0.1733017l0.40502167 -0.11553955l0.4046631 -0.11553192l0.34706116 -0.057769775l0.28909302 -0.11679077l0.28910065 -0.1733017l0.23149109 -0.17330933l0.11557007 -0.23107147l0.11592102 -0.28884125l0.05760193 -0.2901001l0.05796051 -0.40437317z" fill-rule="evenodd"/><path stroke="#000000" stroke-width="1.0" stroke-linejoin="round" stroke-linecap="round" d="m68.275024 90.79573l-0.6365051 0.057769775l-0.57819366 0.057769775l-0.6361618 0.11553192l-0.57819366 0.1733017l-0.5785446 0.2310791l-0.5202408 0.2323227l-0.5205841 0.34661102l-0.4626274 0.34661102l-0.4626274 0.34786224l-0.40502167 0.46215057l-0.34670258 0.40563202l-0.3474121 0.5199127l-0.28909683 0.52117157l-0.23114014 0.5776825l-0.17352676 0.5789337l-0.11557007 0.5776825l-0.2894516 1.966629l-0.23148727 2.0243988l-0.11557007 1.966629l-0.057605743 2.0243988l0.057605743 1.966629l0.11557007 2.0243988l0.17352676 1.966629l0.3474121 1.966629l0.11557007 0.6354523l0.17352676 0.6367035l0.28910065 0.51992035l0.28909683 0.5789337l0.34705734 0.5199127l0.40502167 0.4634018l0.4046631 0.46214294l0.4626274 0.34786987l0.52023315 0.40437317l0.5209427 0.28884125l0.52023315 0.23233032l0.5782013 0.23107147l0.5785446 0.17330933l0.57819366 0.11553192l0.57855225 0.057769775l0.57819366 -0.057769775l-0.057609558 -0.34661102l-0.05796051 -0.29009247l-0.11592102 -0.28884125l-0.173172 -0.23107147l-0.23149109 -0.23107147l-0.28910065 -0.11553955l-0.28909302 -0.17456055l-0.40502167 -0.057769775l-0.4046631 -0.11553192l-0.40502167 -0.11553955l-0.40467072 -0.1733017l-0.34705353 -0.17330933l-0.34706116 -0.23107147l-0.28910065 -0.23233032l-0.5785446 -0.5776825l-0.4046669 -0.6367035l-0.34705734 -0.69447327l-0.17317581 -0.80875397l-0.058315277 -0.8100128l-0.057609558 -7.2298126l0.057609558 -7.2298126l0 -0.4043808l0.058315277 -0.40563202l0.11556625 -0.40437317l0.11557007 -0.4043808l0.34705734 -0.69447327l0.4626274 -0.69447327l0.52023315 -0.5199127l0.63651276 -0.4634018l0.34670258 -0.17330933l0.40502167 -0.1733017l0.40502167 -0.11553955l0.4046631 -0.11553192l0.34706116 -0.057769775l0.28909302 -0.11679077l0.28910065 -0.1733017l0.23149109 -0.17330933l0.11557007 -0.23107147l0.11592102 -0.28884125l0.05760193 -0.2901001l0.05796051 -0.40437317z" fill-rule="evenodd"/><path fill="#111111" d="m90.94686 100.685745l-0.3471222 0.057685852l-0.34677887 0.1157074l-0.3471222 0.11569977l-0.57819366 0.3471222l-0.57852936 0.40446472l-0.40447235 0.57852936l-0.34711456 0.5782013l-0.1157074 0.34711456l-0.1157074 0.34677887l-0.057685852 0.40480804l0 0.69423676l0.057685852 0.40480042l0.1157074 0.3467865l0.1157074 0.28909302l0.34711456 0.6362152l0.40447235 0.52051544l0.57852936 0.46248627l0.57819366 0.3471222l0.3471222 0.11569977l0.34677887 0.1157074l0.3471222 0.057685852l0.7519226 0l0.34711456 -0.057685852l0.34677887 -0.1157074l0.3467865 -0.11569977l0.6362152 -0.3471222l0.5205078 -0.46248627l0.46248627 -0.52051544l0.3471222 -0.6362152l0.1157074 -0.28909302l0.058021545 -0.3467865l0.057685852 -0.40480042l0.057685852 -0.3471222l-0.057685852 -0.34711456l-0.057685852 -0.40480804l-0.058021545 -0.34677887l-0.1157074 -0.34711456l-0.3471222 -0.5782013l-0.46248627 -0.57852936l-0.5205078 -0.40446472l-0.6362152 -0.3471222l-0.3467865 -0.11569977l-0.34677887 -0.1157074l-0.34711456 -0.057685852z" fill-rule="evenodd"/><path stroke="#000000" stroke-width="1.0" stroke-linejoin="round" stroke-linecap="round" d="m90.94686 100.685745l-0.3471222 0.057685852l-0.34677887 0.1157074l-0.3471222 0.11569977l-0.57819366 0.3471222l-0.57852936 0.40446472l-0.40447235 0.57852936l-0.34711456 0.5782013l-0.1157074 0.34711456l-0.1157074 0.34677887l-0.057685852 0.40480804l0 0.69423676l0.057685852 0.40480042l0.1157074 0.3467865l0.1157074 0.28909302l0.34711456 0.6362152l0.40447235 0.52051544l0.57852936 0.46248627l0.57819366 0.3471222l0.3471222 0.11569977l0.34677887 0.1157074l0.3471222 0.057685852l0.7519226 0l0.34711456 -0.057685852l0.34677887 -0.1157074l0.3467865 -0.11569977l0.6362152 -0.3471222l0.5205078 -0.46248627l0.46248627 -0.52051544l0.3471222 -0.6362152l0.1157074 -0.28909302l0.058021545 -0.3467865l0.057685852 -0.40480042l0.057685852 -0.3471222l-0.057685852 -0.34711456l-0.057685852 -0.40480804l-0.058021545 -0.34677887l-0.1157074 -0.34711456l-0.3471222 -0.5782013l-0.46248627 -0.57852936l-0.5205078 -0.40446472l-0.6362152 -0.3471222l-0.3467865 -0.11569977l-0.34677887 -0.1157074l-0.34711456 -0.057685852z" fill-rule="evenodd"/><path fill="#ffffff" d="m140.0385 53.224968l126.5197 0l0 26.29921l-126.5197 0z" fill-rule="evenodd"/><path fill="#cc0000" d="m165.7756 69.83457l-0.546875 -1.375l-3.109375 0l-0.546875 1.375l-0.890625 0l2.5 -6.21875l0.96875 0l2.5 6.21875l-0.875 0zm-2.109375 -5.421875l-1.3125 3.34375l2.640625 0l-1.328125 -3.34375zm6.809784 5.421875l0 -2.953125q0 -0.59375 -0.28125 -0.8125q-0.265625 -0.234375 -0.71875 -0.234375q-0.390625 0 -0.78125 0.21875q-0.375 0.203125 -0.546875 0.484375l0 3.296875l-0.703125 0l0 -4.5l0.703125 0l0 0.640625q0.28125 -0.328125 0.703125 -0.546875q0.421875 -0.21875 0.890625 -0.21875q1.4375 0 1.4375 1.46875l0 3.15625l-0.703125 0zm5.139801 0l0 -2.953125q0 -0.59375 -0.28125 -0.8125q-0.265625 -0.234375 -0.71875 -0.234375q-0.390625 0 -0.78125 0.21875q-0.375 0.203125 -0.546875 0.484375l0 3.296875l-0.703125 0l0 -4.5l0.703125 0l0 0.640625q0.28125 -0.328125 0.703125 -0.546875q0.421875 -0.21875 0.890625 -0.21875q1.4375 0 1.4375 1.46875l0 3.15625l-0.703125 0zm4.077301 0.109375q-0.984375 0 -1.609375 -0.65625q-0.625 -0.671875 -0.625 -1.703125q0 -1.046875 0.625 -1.703125q0.625 -0.671875 1.609375 -0.671875q0.96875 0 1.59375 0.671875q0.625 0.65625 0.625 1.703125q0 1.03125 -0.625 1.703125q-0.625 0.65625 -1.59375 0.65625zm0 -0.625q0.65625 0 1.0625 -0.484375q0.421875 -0.5 0.421875 -1.25q0 -0.765625 -0.421875 -1.25q-0.40625 -0.5 -1.0625 -0.5q-0.65625 0 -1.078125 0.5q-0.421875 0.484375 -0.421875 1.25q0 0.765625 0.40625 1.25q0.421875 0.484375 1.09375 0.484375zm4.5075684 0.625q-1.0 0 -1.0 -1.046875l0 -2.953125l-0.75 0l0 -0.609375l0.75 0l0 -1.234375l0.703125 0l0 1.234375l0.90625 0l0 0.609375l-0.90625 0l0 2.796875q0 0.25 0.109375 0.421875q0.109375 0.15625 0.34375 0.15625q0.28125 0 0.46875 -0.1875l0.203125 0.53125q-0.28125 0.28125 -0.828125 0.28125zm4.414337 -0.109375l0 -0.515625q-0.5625 0.625 -1.484375 0.625q-0.6875 0 -1.140625 -0.421875q-0.4375 -0.4375 -0.4375 -1.0625q0 -0.65625 0.4375 -1.0625q0.4375 -0.421875 1.140625 -0.421875q0.96875 0 1.484375 0.609375l0 -0.8125q0 -0.453125 -0.328125 -0.703125q-0.3125 -0.25 -0.8125 -0.25q-0.796875 0 -1.375 0.625l-0.328125 -0.484375q0.71875 -0.75 1.796875 -0.75q0.828125 0 1.28125 0.40625q0.46875 0.40625 0.46875 1.125l0 3.09375l-0.703125 0zm-1.234375 -0.390625q0.828125 0 1.234375 -0.5625l0 -0.84375q-0.40625 -0.5625 -1.234375 -0.5625q-0.5 0 -0.8125 0.28125q-0.296875 0.265625 -0.296875 0.703125q0 0.4375 0.296875 0.71875q0.3125 0.265625 0.8125 0.265625zm4.478424 0.5q-1.0 0 -1.0 -1.046875l0 -2.953125l-0.75 0l0 -0.609375l0.75 0l0 -1.234375l0.703125 0l0 1.234375l0.90625 0l0 0.609375l-0.90625 0l0 2.796875q0 0.25 0.109375 0.421875q0.109375 0.15625 0.34375 0.15625q0.28125 0 0.46875 -0.1875l0.203125 0.53125q-0.28125 0.28125 -0.828125 0.28125zm3.6330872 0q-1.015625 0 -1.65625 -0.65625q-0.640625 -0.671875 -0.640625 -1.703125q0 -1.0 0.625 -1.6875q0.640625 -0.6875 1.59375 -0.6875q0.96875 0 1.5625 0.671875q0.609375 0.671875 0.609375 1.75l0 0.171875l-3.65625 0q0.046875 0.703125 0.5 1.140625q0.46875 0.421875 1.125 0.421875q0.828125 0 1.390625 -0.5625l0.34375 0.453125q-0.703125 0.6875 -1.796875 0.6875zm1.390625 -2.640625q0 -0.625 -0.40625 -1.0625q-0.40625 -0.453125 -1.0625 -0.453125q-0.625 0 -1.046875 0.453125q-0.421875 0.4375 -0.4375 1.0625l2.953125 0zm5.0954895 2.53125l0 -0.671875q-0.25 0.34375 -0.65625 0.5625q-0.390625 0.21875 -0.875 0.21875q-0.890625 0 -1.453125 -0.640625q-0.546875 -0.640625 -0.546875 -1.71875q0 -1.078125 0.546875 -1.71875q0.5625 -0.65625 1.453125 -0.65625q0.46875 0 0.859375 0.21875q0.390625 0.203125 0.671875 0.578125l0 -2.390625l0.703125 0l0 6.21875l-0.703125 0zm-1.359375 -0.515625q0.421875 0 0.796875 -0.203125q0.375 -0.203125 0.5625 -0.5l0 -2.046875q-0.1875 -0.296875 -0.5625 -0.515625q-0.375 -0.21875 -0.796875 -0.21875q-0.65625 0 -1.046875 0.484375q-0.390625 0.46875 -0.390625 1.265625q0 0.78125 0.390625 1.265625q0.390625 0.46875 1.046875 0.46875zm7.42659 0.515625l0 -5.53125l-1.96875 0l0 -0.6875l4.71875 0l0 0.6875l-1.96875 0l0 5.53125l-0.78125 0zm2.961197 0l0 -4.5l0.703125 0l0 0.71875q0.625 -0.8125 1.5 -0.8125l0 0.71875l-0.28125 -0.03125q-0.328125 0 -0.703125 0.234375q-0.375 0.21875 -0.515625 0.484375l0 3.1875l-0.703125 0zm5.8907776 0l0 -0.515625q-0.5625 0.625 -1.484375 0.625q-0.6875 0 -1.140625 -0.421875q-0.4375 -0.4375 -0.4375 -1.0625q0 -0.65625 0.4375 -1.0625q0.4375 -0.421875 1.140625 -0.421875q0.96875 0 1.484375 0.609375l0 -0.8125q0 -0.453125 -0.328125 -0.703125q-0.3125 -0.25 -0.8125 -0.25q-0.796875 0 -1.375 0.625l-0.328125 -0.484375q0.71875 -0.75 1.796875 -0.75q0.828125 0 1.28125 0.40625q0.46875 0.40625 0.46875 1.125l0 3.09375l-0.703125 0zm-1.234375 -0.390625q0.828125 0 1.234375 -0.5625l0 -0.84375q-0.40625 -0.5625 -1.234375 -0.5625q-0.5 0 -0.8125 0.28125q-0.296875 0.265625 -0.296875 0.703125q0 0.4375 0.296875 0.71875q0.3125 0.265625 0.8125 0.265625zm3.681549 -4.765625q-0.1875 0 -0.328125 -0.125q-0.140625 -0.140625 -0.140625 -0.328125q0 -0.203125 0.140625 -0.34375q0.140625 -0.140625 0.328125 -0.140625q0.1875 0 0.328125 0.140625q0.140625 0.140625 0.140625 0.34375q0 0.1875 -0.140625 0.328125q-0.140625 0.125 -0.328125 0.125zm-0.984375 6.984375q-0.34375 0 -0.546875 -0.09375q-0.21875 -0.078125 -0.4375 -0.234375l0.25 -0.546875q0.296875 0.296875 0.640625 0.296875q0.734375 0 0.734375 -0.8125l0 -4.9375l0.703125 0l0 4.9375q0 0.671875 -0.359375 1.03125q-0.34375 0.359375 -0.984375 0.359375zm4.770706 -1.71875q-1.015625 0 -1.65625 -0.65625q-0.640625 -0.671875 -0.640625 -1.703125q0 -1.0 0.625 -1.6875q0.640625 -0.6875 1.59375 -0.6875q0.96875 0 1.5625 0.671875q0.609375 0.671875 0.609375 1.75l0 0.171875l-3.65625 0q0.046875 0.703125 0.5 1.140625q0.46875 0.421875 1.125 0.421875q0.828125 0 1.390625 -0.5625l0.34375 0.453125q-0.703125 0.6875 -1.796875 0.6875zm1.390625 -2.640625q0 -0.625 -0.40625 -1.0625q-0.40625 -0.453125 -1.0625 -0.453125q-0.625 0 -1.046875 0.453125q-0.421875 0.4375 -0.4375 1.0625l2.953125 0zm3.8142395 2.640625q-0.984375 0 -1.625 -0.671875q-0.625 -0.671875 -0.625 -1.6875q0 -1.03125 0.625 -1.703125q0.640625 -0.671875 1.625 -0.671875q1.046875 0 1.65625 0.796875l-0.46875 0.421875q-0.4375 -0.59375 -1.15625 -0.59375q-0.6875 0 -1.125 0.484375q-0.421875 0.484375 -0.421875 1.265625q0 0.78125 0.421875 1.265625q0.4375 0.46875 1.125 0.46875q0.71875 0 1.15625 -0.578125l0.46875 0.421875q-0.609375 0.78125 -1.65625 0.78125zm3.7736664 0q-1.0 0 -1.0 -1.046875l0 -2.953125l-0.75 0l0 -0.609375l0.75 0l0 -1.234375l0.703125 0l0 1.234375l0.90625 0l0 0.609375l-0.90625 0l0 2.796875q0 0.25 0.109375 0.421875q0.109375 0.15625 0.34375 0.15625q0.28125 0 0.46875 -0.1875l0.203125 0.53125q-0.28125 0.28125 -0.828125 0.28125zm3.5705872 0q-0.984375 0 -1.609375 -0.65625q-0.625 -0.671875 -0.625 -1.703125q0 -1.046875 0.625 -1.703125q0.625 -0.671875 1.609375 -0.671875q0.96875 0 1.59375 0.671875q0.625 0.65625 0.625 1.703125q0 1.03125 -0.625 1.703125q-0.625 0.65625 -1.59375 0.65625zm0 -0.625q0.65625 0 1.0625 -0.484375q0.421875 -0.5 0.421875 -1.25q0 -0.765625 -0.421875 -1.25q-0.40625 -0.5 -1.0625 -0.5q-0.65625 0 -1.078125 0.5q-0.421875 0.484375 -0.421875 1.25q0 0.765625 0.40625 1.25q0.421875 0.484375 1.09375 0.484375zm3.3669434 0.515625l0 -4.5l0.703125 0l0 0.71875q0.625 -0.8125 1.5 -0.8125l0 0.71875l-0.28125 -0.03125q-0.328125 0 -0.703125 0.234375q-0.375 0.21875 -0.515625 0.484375l0 3.1875l-0.703125 0zm2.9376526 1.125q0.140625 0.078125 0.375 0.078125q0.234375 0 0.390625 -0.109375q0.171875 -0.09375 0.28125 -0.359375l0.296875 -0.6875l-1.875 -4.546875l0.75 0l1.5 3.6875l1.5 -3.6875l0.765625 0l-2.265625 5.421875q-0.375 0.890625 -1.328125 0.90625q-0.265625 0 -0.5 -0.0625l0.109375 -0.640625z" fill-rule="nonzero"/><path fill="#000000" fill-opacity="0.0" d="m203.30432 76.63342l-0.15748596 36.661415" fill-rule="evenodd"/><path stroke="#ffffff" stroke-width="2.0" stroke-linejoin="round" stroke-linecap="butt" d="m203.30432 76.63342l-0.124923706 29.081482" fill-rule="evenodd"/><path fill="#ffffff" stroke="#ffffff" stroke-width="2.0" stroke-linecap="butt" d="m203.15114 112.294846c-1.8170013 -0.0078048706 -3.2836456 -1.4871063 -3.2758484 -3.3041c0.0078125 -1.8170013 1.4871063 -3.2836456 3.3041077 -3.2758408c1.8170013 0.0078048706 3.2836456 1.4870987 3.2758331 3.3041c-0.007797241 1.8170013 -1.4870911 3.2836456 -3.3040924 3.2758408z" fill-rule="nonzero"/><path fill="#434343" d="m549.7738 15.639507l391.0551 0l0 118.29921l-391.0551 0z" fill-rule="evenodd"/><path stroke="#ffffff" stroke-width="1.0" stroke-linejoin="round" stroke-linecap="butt" d="m549.7738 15.639507l391.0551 0l0 118.29921l-391.0551 0z" fill-rule="evenodd"/><path fill="#000000" fill-opacity="0.0" d="m549.7738 74.76611l391.0551 0" fill-rule="evenodd"/><path stroke="#bf9000" stroke-width="3.0" stroke-linejoin="round" stroke-linecap="butt" stroke-dasharray="12.0,9.0" d="m549.7738 74.76611l391.0551 0" fill-rule="evenodd"/><path fill="#000000" fill-opacity="0.0" d="m549.7769 133.8913l391.0551 0" fill-rule="evenodd"/><path stroke="#bf9000" stroke-width="3.0" stroke-linejoin="round" stroke-linecap="butt" d="m549.7769 133.8913l391.0551 0" fill-rule="evenodd"/><path fill="#000000" fill-opacity="0.0" d="m549.7769 15.639507l391.0551 0" fill-rule="evenodd"/><path stroke="#bf9000" stroke-width="3.0" stroke-linejoin="round" stroke-linecap="butt" d="m549.7769 15.639507l391.0551 0" fill-rule="evenodd"/><path fill="#5f5ba5" d="m648.4477 79.421776l0.23693848 0.010055542l0.25213623 0.066337585l0.19226074 0.07712555l0.15966797 0.20276642l0.12713623 0.32843018l0.09429932 0.45244598l-4.4693604 1.2267303l-4.493042 1.1128082l-4.560913 1.069191l-4.5164185 1.0005112l-9.0928955 2.0118027l-4.560852 1.0691986l-4.5493164 1.124527l-0.11804199 -0.5663681l0.018310547 -0.47589874l0.030090332 -0.41893768l0.1661377 -0.33008575l0.23718262 -0.2871704l0.31756592 -0.18334198l0.3704834 -0.19437408l0.5097656 -0.10621643l16.5755 -3.513176l16.563599 -3.5701447zm-5.199341 5.0995255l0.97265625 2.3972244l0.87164307 2.4760056l0.75579834 2.5001526l0.5755005 2.479988l0.47442627 2.5587769l0.30560303 2.5939484l0.1897583 2.6180954l0.07757568 2.6431656l-5.4800415 1.1995926l-5.3309937 1.0530548l-9.706055 1.9035263l-9.669861 1.7788086l-1.0758057 0.22415924l-1.0995483 0.11023712l-0.52130127 0.050880432l-0.557251 -0.12163544l-0.50061035 -0.13172913l-0.4647827 -0.2580719l-0.36706543 -0.33616638l-0.31939697 -0.4055481l-0.26672363 -0.41820526l-0.1739502 -0.5530243l-2.925232 -14.038879l-0.0736084 -0.6350632l0.1104126 -0.6139679l0.18707275 -0.51107025l0.31451416 -0.4798813l0.38293457 -0.43301392l0.5748291 -0.35752106l0.598938 -0.24196625l0.77923584 -0.22180176l8.968445 -2.0453186l9.032959 -2.0010147zm11.642578 -3.6655731l0.23699951 0.010063171l0.2366333 0.008430481l0.25213623 0.066337585l0.19256592 0.07874298l0.47961426 0.31272125l0.50335693 0.42664337l0.43188477 0.38209534l0.83465576 0.8891525l0.66607666 0.9259567l0.6210327 0.9913864l0.5055542 1.0171509l0.4644165 1.0851593l0.4048462 1.0975647l0.40447998 1.0959473l0.446167 1.5610504l0.3065796 1.4712677l0.20288086 1.5540009l0.08148193 1.5181656l-0.034362793 1.5423126l-0.21478271 1.5221481l-0.32757568 1.5439682l-0.4517212 1.5120926l-0.20196533 0.45642853l-0.19891357 0.4541092l-0.22570801 0.3425064l-0.34674072 0.3082962l-0.3171997 0.18496704l-0.43011475 0.20679474l-1.0195312 0.21243286l-2.2073364 0.16444397l-2.1987305 0.2220993l-4.5426025 0.59329987l-0.09240723 -2.697815l-0.20166016 -2.6750565l-0.37371826 -2.6391907l-0.47479248 -2.560402l-0.59887695 -2.5922852l-0.7114258 -2.56884l-0.8834839 -2.5329666l-0.99279785 -2.5102158l5.2695923 -1.6295242l2.0037842 -0.59413147l0.951416 -0.25766754l0.9842529 -0.3816986zm-43.77942 7.05542l0.026123047 0.4072113l0.002746582 0.29491425l-0.053527832 0.306633l-0.06542969 0.24967957l-0.19311523 0.21685028l-0.24578857 0.22951508l-0.2612915 0.1716156l-0.32574463 0.1273117l-0.37347412 0.19669342l-0.37384033 0.19506073l-0.35864258 0.25134277l-0.3053589 0.2419281l-0.52801514 0.5821152l-0.4036255 0.6156311l-0.31176758 0.7747879l-0.19622803 0.74902344l-0.033447266 0.41962433l-0.029785156 0.42056274l0.026123047 0.4072113l0.08276367 0.39711l1.4182129 7.088135l1.5303955 7.0630493l0.22143555 0.78086853l0.33392334 0.7574234l0.48272705 0.6092529l0.5267334 0.5389404l0.68408203 0.44843292l0.3284912 0.16759491l0.38806152 0.15518188l0.37329102 0.10054016l0.43249512 0.086494446l0.42095947 0.031158447l0.42059326 0.029525757l0.40576172 -0.025108337l0.3199463 0.109939575l0.30511475 0.05529785l0.27557373 0.17863464l0.21594238 0.19104767l0.17156982 0.2597351l0.115234375 0.2714615l0.12719727 0.32842255l-0.5545654 0.17327881l-0.57751465 0.06260681l-0.5897827 0.004020691l-0.60131836 -0.051315308l-0.6132202 -0.108284l-0.55688477 -0.12000275l-0.5687866 -0.17697144l-0.58917236 -0.2915802l-0.52441406 -0.24565887l-0.49145508 -0.3696823l-0.4915161 -0.3696823l-0.44378662 -0.4390564l-0.40264893 -0.5070572l-0.3875122 -0.45078278l-0.302063 -0.587471l-0.24206543 -0.59825134l-0.73883057 -1.8549957l-0.572937 -1.8878479l-0.52557373 -1.9588547l-0.45715332 -1.9119873l-0.3567505 -1.9940262l-0.28826904 -1.9471664l-0.18463135 -2.0298996l-0.119506836 -1.982338l-0.005432129 -0.5898285l0.05407715 -0.6022339l0.1071167 -0.6132736l0.17852783 -0.5687256l0.23150635 -0.5797653l0.25854492 -0.46652222l0.3026123 -0.53684235l0.37963867 -0.43232727l0.3826294 -0.43463898l0.4389038 -0.446373l0.46258545 -0.3324356l0.5189209 -0.34416962l0.5307617 -0.28720093l0.5985718 -0.24359894l0.5541992 -0.17490387l0.6107788 -0.18500519zm7.0272217 24.641716l4.6083374 -0.84134674l4.540161 -0.8865814l9.124817 -1.8418579l4.5994873 -0.9006195l4.552063 -0.82962036l4.619873 -0.78601074l4.6554565 -0.61511993l0.022460938 1.2349777l-13.247314 2.7602844l-10.54126 2.1386871l-10.47345 2.1822891l-0.52160645 0.04925537l-0.40576172 0.025115967l-0.4206543 -0.029533386l-0.32025146 -0.111572266l-0.28411865 -0.23628235l-0.18341064 -0.31669617l-0.20684814 -0.42900085l-0.11798096 -0.5663681zm30.345215 -36.91877l-0.2131958 0.10386658l-0.18988037 0.21616364l-0.24664307 0.5234909l-0.07696533 0.19433594l0.047180176 0.22621918l0.037963867 0.46418l-1.4730225 0.3069229l-14.933594 3.171074l-7.4592285 1.613678l-7.4628906 1.6127396l-2.0272217 0.48182678l-2.0682983 0.5498352l-1.9919434 0.6510925l-0.9842529 0.3816986l-0.9724121 0.43865967l-0.54229736 0.23187256l-0.5307617 0.28720093l-0.5189209 0.34416962l-0.45074463 0.3894043l-0.46264648 0.3324356l-0.37927246 0.43395233l-0.3826294 0.4346466l-0.3826294 0.43463898l-0.31481934 0.4782486l-0.24334717 0.52280426l-0.24633789 0.52511597l-0.19042969 0.5117645l-0.16333008 0.625l-0.11895752 0.55630493l-0.11071777 0.61234283l-0.03894043 0.6585083l-0.016113281 1.0664139l-0.012817383 1.0657196l0.1517334 2.1539154l0.21136475 2.14151l0.380188 2.1063232l0.49273682 2.082878l0.5489502 2.0711517l0.66485596 2.0470123l0.71777344 2.0359802l0.32543945 0.69976807l0.31054688 0.6451187l0.3665161 0.6317673l0.35827637 0.5757446l0.39904785 0.5061188l0.45898438 0.4953308l0.51519775 0.48361206l0.4882202 0.37036896l0.5480957 0.359581l0.60406494 0.34622955l0.58062744 0.2339325l0.6928711 0.20884705l0.63690186 0.22220612l0.68133545 0.15351868l0.725708 0.08483124l0.7734375 0.015457153l1.4161987 3.9672852E-4l1.4638672 -0.068977356l1.3809204 -0.16886902l1.4286499 -0.23823547l11.003235 -2.1755219l10.995117 -2.2315521l11.890137 -2.4774933l-0.13409424 0.50003815l0.7788696 0.605278l0.34075928 0.22618103l0.12408447 0.03189087l0.068115234 0.04523468l0.35009766 -0.30899048l0.32635498 -0.42292023l0.72662354 -1.0378494l5.0861816 -1.1175156l2.658081 -0.55384827l2.729187 -0.5109329l1.1883545 -0.247612l1.1682739 -0.3605957l1.0730591 -0.5190735l1.0612183 -0.57603455l0.9133911 -0.72184753l0.84191895 -0.76639557l0.765625 -0.8676529l0.682251 -0.9691696l0.5611572 -1.0033646l0.49005127 -1.0462875l0.35375977 -1.1367645l0.22930908 -1.1702728l0.101623535 -1.2031021l-0.019165039 -1.235672l-0.1472168 -1.2701187l-0.27093506 -1.3003769l-0.4428711 -1.5617447l-0.3421631 -1.6421585l-0.6161499 -3.2390747l-0.36834717 -2.0493622l-0.2803955 -1.0640564l-0.2685547 -1.0070953l-0.38110352 -0.9836426l-0.428833 -0.9142685l-0.55322266 -0.9477768l-0.5946655 -0.8814087l-0.59490967 -0.5841751l-0.53863525 -0.5959091l-0.583374 -0.5288391l-0.6245117 -0.46084595l-0.61590576 -0.4031906l-1.3206177 -0.66900635l-0.708374 -0.26675415l-0.69317627 -0.21048737l-0.73724365 -0.1401596l-1.4517822 -0.17128754l-0.7734375 -0.015449524l-0.8148804 0.05091858l-0.80596924 0.110198975l-5.8292847 1.2146072l-4.958435 1.1503296l-0.56604004 0.11794281l-0.24023438 -0.0093688965l-0.2366333 -0.008430481l-0.24884033 -0.06702423l-0.20739746 -0.13339996l-0.15966797 -0.20277405l-0.12713623 -0.32842255l-0.14782715 -0.14580536l-0.2758789 -0.1802597l-0.30474854 -0.05367279l-0.29656982 0.0023498535z" fill-rule="evenodd"/><path stroke="#000000" stroke-width="1.0" stroke-linejoin="round" stroke-linecap="round" d="m648.4477 79.421776l0.23693848 0.010055542l0.25213623 0.066337585l0.19226074 0.07712555l0.15966797 0.20276642l0.12713623 0.32843018l0.09429932 0.45244598l-4.4693604 1.2267303l-4.493042 1.1128082l-4.560913 1.069191l-4.5164185 1.0005112l-9.0928955 2.0118027l-4.560852 1.0691986l-4.5493164 1.124527l-0.11804199 -0.5663681l0.018310547 -0.47589874l0.030090332 -0.41893768l0.1661377 -0.33008575l0.23718262 -0.2871704l0.31756592 -0.18334198l0.3704834 -0.19437408l0.5097656 -0.10621643l16.5755 -3.513176l16.563599 -3.5701447zm-5.199341 5.0995255l0.97265625 2.3972244l0.87164307 2.4760056l0.75579834 2.5001526l0.5755005 2.479988l0.47442627 2.5587769l0.30560303 2.5939484l0.1897583 2.6180954l0.07757568 2.6431656l-5.4800415 1.1995926l-5.3309937 1.0530548l-9.706055 1.9035263l-9.669861 1.7788086l-1.0758057 0.22415924l-1.0995483 0.11023712l-0.52130127 0.050880432l-0.557251 -0.12163544l-0.50061035 -0.13172913l-0.4647827 -0.2580719l-0.36706543 -0.33616638l-0.31939697 -0.4055481l-0.26672363 -0.41820526l-0.1739502 -0.5530243l-2.925232 -14.038879l-0.0736084 -0.6350632l0.1104126 -0.6139679l0.18707275 -0.51107025l0.31451416 -0.4798813l0.38293457 -0.43301392l0.5748291 -0.35752106l0.598938 -0.24196625l0.77923584 -0.22180176l8.968445 -2.0453186l9.032959 -2.0010147zm11.642578 -3.6655731l0.23699951 0.010063171l0.2366333 0.008430481l0.25213623 0.066337585l0.19256592 0.07874298l0.47961426 0.31272125l0.50335693 0.42664337l0.43188477 0.38209534l0.83465576 0.8891525l0.66607666 0.9259567l0.6210327 0.9913864l0.5055542 1.0171509l0.4644165 1.0851593l0.4048462 1.0975647l0.40447998 1.0959473l0.446167 1.5610504l0.3065796 1.4712677l0.20288086 1.5540009l0.08148193 1.5181656l-0.034362793 1.5423126l-0.21478271 1.5221481l-0.32757568 1.5439682l-0.4517212 1.5120926l-0.20196533 0.45642853l-0.19891357 0.4541092l-0.22570801 0.3425064l-0.34674072 0.3082962l-0.3171997 0.18496704l-0.43011475 0.20679474l-1.0195312 0.21243286l-2.2073364 0.16444397l-2.1987305 0.2220993l-4.5426025 0.59329987l-0.09240723 -2.697815l-0.20166016 -2.6750565l-0.37371826 -2.6391907l-0.47479248 -2.560402l-0.59887695 -2.5922852l-0.7114258 -2.56884l-0.8834839 -2.5329666l-0.99279785 -2.5102158l5.2695923 -1.6295242l2.0037842 -0.59413147l0.951416 -0.25766754l0.9842529 -0.3816986zm-43.77942 7.05542l0.026123047 0.4072113l0.002746582 0.29491425l-0.053527832 0.306633l-0.06542969 0.24967957l-0.19311523 0.21685028l-0.24578857 0.22951508l-0.2612915 0.1716156l-0.32574463 0.1273117l-0.37347412 0.19669342l-0.37384033 0.19506073l-0.35864258 0.25134277l-0.3053589 0.2419281l-0.52801514 0.5821152l-0.4036255 0.6156311l-0.31176758 0.7747879l-0.19622803 0.74902344l-0.033447266 0.41962433l-0.029785156 0.42056274l0.026123047 0.4072113l0.08276367 0.39711l1.4182129 7.088135l1.5303955 7.0630493l0.22143555 0.78086853l0.33392334 0.7574234l0.48272705 0.6092529l0.5267334 0.5389404l0.68408203 0.44843292l0.3284912 0.16759491l0.38806152 0.15518188l0.37329102 0.10054016l0.43249512 0.086494446l0.42095947 0.031158447l0.42059326 0.029525757l0.40576172 -0.025108337l0.3199463 0.109939575l0.30511475 0.05529785l0.27557373 0.17863464l0.21594238 0.19104767l0.17156982 0.2597351l0.115234375 0.2714615l0.12719727 0.32842255l-0.5545654 0.17327881l-0.57751465 0.06260681l-0.5897827 0.004020691l-0.60131836 -0.051315308l-0.6132202 -0.108284l-0.55688477 -0.12000275l-0.5687866 -0.17697144l-0.58917236 -0.2915802l-0.52441406 -0.24565887l-0.49145508 -0.3696823l-0.4915161 -0.3696823l-0.44378662 -0.4390564l-0.40264893 -0.5070572l-0.3875122 -0.45078278l-0.302063 -0.587471l-0.24206543 -0.59825134l-0.73883057 -1.8549957l-0.572937 -1.8878479l-0.52557373 -1.9588547l-0.45715332 -1.9119873l-0.3567505 -1.9940262l-0.28826904 -1.9471664l-0.18463135 -2.0298996l-0.119506836 -1.982338l-0.005432129 -0.5898285l0.05407715 -0.6022339l0.1071167 -0.6132736l0.17852783 -0.5687256l0.23150635 -0.5797653l0.25854492 -0.46652222l0.3026123 -0.53684235l0.37963867 -0.43232727l0.3826294 -0.43463898l0.4389038 -0.446373l0.46258545 -0.3324356l0.5189209 -0.34416962l0.5307617 -0.28720093l0.5985718 -0.24359894l0.5541992 -0.17490387l0.6107788 -0.18500519zm7.0272217 24.641716l4.6083374 -0.84134674l4.540161 -0.8865814l9.124817 -1.8418579l4.5994873 -0.9006195l4.552063 -0.82962036l4.619873 -0.78601074l4.6554565 -0.61511993l0.022460938 1.2349777l-13.247314 2.7602844l-10.54126 2.1386871l-10.47345 2.1822891l-0.52160645 0.04925537l-0.40576172 0.025115967l-0.4206543 -0.029533386l-0.32025146 -0.111572266l-0.28411865 -0.23628235l-0.18341064 -0.31669617l-0.20684814 -0.42900085l-0.11798096 -0.5663681zm30.345215 -36.91877l-0.2131958 0.10386658l-0.18988037 0.21616364l-0.24664307 0.5234909l-0.07696533 0.19433594l0.047180176 0.22621918l0.037963867 0.46418l-1.4730225 0.3069229l-14.933594 3.171074l-7.4592285 1.613678l-7.4628906 1.6127396l-2.0272217 0.48182678l-2.0682983 0.5498352l-1.9919434 0.6510925l-0.9842529 0.3816986l-0.9724121 0.43865967l-0.54229736 0.23187256l-0.5307617 0.28720093l-0.5189209 0.34416962l-0.45074463 0.3894043l-0.46264648 0.3324356l-0.37927246 0.43395233l-0.3826294 0.4346466l-0.3826294 0.43463898l-0.31481934 0.4782486l-0.24334717 0.52280426l-0.24633789 0.52511597l-0.19042969 0.5117645l-0.16333008 0.625l-0.11895752 0.55630493l-0.11071777 0.61234283l-0.03894043 0.6585083l-0.016113281 1.0664139l-0.012817383 1.0657196l0.1517334 2.1539154l0.21136475 2.14151l0.380188 2.1063232l0.49273682 2.082878l0.5489502 2.0711517l0.66485596 2.0470123l0.71777344 2.0359802l0.32543945 0.69976807l0.31054688 0.6451187l0.3665161 0.6317673l0.35827637 0.5757446l0.39904785 0.5061188l0.45898438 0.4953308l0.51519775 0.48361206l0.4882202 0.37036896l0.5480957 0.359581l0.60406494 0.34622955l0.58062744 0.2339325l0.6928711 0.20884705l0.63690186 0.22220612l0.68133545 0.15351868l0.725708 0.08483124l0.7734375 0.015457153l1.4161987 3.9672852E-4l1.4638672 -0.068977356l1.3809204 -0.16886902l1.4286499 -0.23823547l11.003235 -2.1755219l10.995117 -2.2315521l11.890137 -2.4774933l-0.13409424 0.50003815l0.7788696 0.605278l0.34075928 0.22618103l0.12408447 0.03189087l0.068115234 0.04523468l0.35009766 -0.30899048l0.32635498 -0.42292023l0.72662354 -1.0378494l5.0861816 -1.1175156l2.658081 -0.55384827l2.729187 -0.5109329l1.1883545 -0.247612l1.1682739 -0.3605957l1.0730591 -0.5190735l1.0612183 -0.57603455l0.9133911 -0.72184753l0.84191895 -0.76639557l0.765625 -0.8676529l0.682251 -0.9691696l0.5611572 -1.0033646l0.49005127 -1.0462875l0.35375977 -1.1367645l0.22930908 -1.1702728l0.101623535 -1.2031021l-0.019165039 -1.235672l-0.1472168 -1.2701187l-0.27093506 -1.3003769l-0.4428711 -1.5617447l-0.3421631 -1.6421585l-0.6161499 -3.2390747l-0.36834717 -2.0493622l-0.2803955 -1.0640564l-0.2685547 -1.0070953l-0.38110352 -0.9836426l-0.428833 -0.9142685l-0.55322266 -0.9477768l-0.5946655 -0.8814087l-0.59490967 -0.5841751l-0.53863525 -0.5959091l-0.583374 -0.5288391l-0.6245117 -0.46084595l-0.61590576 -0.4031906l-1.3206177 -0.66900635l-0.708374 -0.26675415l-0.69317627 -0.21048737l-0.73724365 -0.1401596l-1.4517822 -0.17128754l-0.7734375 -0.015449524l-0.8148804 0.05091858l-0.80596924 0.110198975l-5.8292847 1.2146072l-4.958435 1.1503296l-0.56604004 0.11794281l-0.24023438 -0.0093688965l-0.2366333 -0.008430481l-0.24884033 -0.06702423l-0.20739746 -0.13339996l-0.15966797 -0.20277405l-0.12713623 -0.32842255l-0.14782715 -0.14580536l-0.2758789 -0.1802597l-0.30474854 -0.05367279l-0.29656982 0.0023498535z" fill-rule="evenodd"/><path fill="#5f5ba5" d="m629.8889 87.30569l-9.033569 2.000084l-8.966614 2.0460358l-0.78045654 0.2215271l-0.59887695 0.24260712l-0.5769043 0.35681152l-0.38189697 0.43400574l-0.3135376 0.47867584l-0.18865967 0.5115509l-0.10827637 0.6136093l0.07318115 0.6347046l2.925415 14.039925l0.17462158 0.5546646l0.26409912 0.4172287l0.32080078 0.40637207l0.36547852 0.33718872l0.46691895 0.25714874l0.49993896 0.13244629l0.5579834 0.11936951l0.5211792 -0.048713684l1.0986938 -0.11110687l1.0751343 -0.22402191l9.671631 -1.7795944l9.704895 -1.9033585l5.3324585 -1.0521927l5.4804077 -1.2008286l-0.07824707 -2.642418l-0.19122314 -2.617897l-0.30456543 -2.5952606l-0.47418213 -2.5589447l-0.5757446 -2.4798431l-0.7570801 -2.4999924l-0.8704834 -2.477356l-0.97161865 -2.39637z" fill-rule="evenodd"/><path stroke="#000000" stroke-width="1.0" stroke-linejoin="round" stroke-linecap="butt" d="m629.8889 87.30569l-9.033569 2.000084l-8.966614 2.0460358l-0.78045654 0.2215271l-0.59887695 0.24260712l-0.5769043 0.35681152l-0.38189697 0.43400574l-0.3135376 0.47867584l-0.18865967 0.5115509l-0.10827637 0.6136093l0.07318115 0.6347046l2.925415 14.039925l0.17462158 0.5546646l0.26409912 0.4172287l0.32080078 0.40637207l0.36547852 0.33718872l0.46691895 0.25714874l0.49993896 0.13244629l0.5579834 0.11936951l0.5211792 -0.048713684l1.0986938 -0.11110687l1.0751343 -0.22402191l9.671631 -1.7795944l9.704895 -1.9033585l5.3324585 -1.0521927l5.4804077 -1.2008286l-0.07824707 -2.642418l-0.19122314 -2.617897l-0.30456543 -2.5952606l-0.47418213 -2.5589447l-0.5757446 -2.4798431l-0.7570801 -2.4999924l-0.8704834 -2.477356l-0.97161865 -2.39637z" fill-rule="evenodd"/><path fill="#ffffff" d="m654.32245 80.973976l-0.9837036 0.38237l-0.95080566 0.25688934l-2.0021362 0.5945816l-5.2717896 1.62957l0.9953613 2.510231l0.881958 2.5327682l0.71307373 2.569046l0.59906006 2.591713l0.47436523 2.5600128l0.3720703 2.6390076l0.20300293 2.67424l0.09008789 2.6988678l4.5427246 -0.59174347l2.1985474 -0.22193146l2.2096558 -0.16547394l1.019165 -0.21234894l0.42913818 -0.20696259l0.3157959 -0.18443298l0.34960938 -0.30901337l0.22399902 -0.3416214l0.20031738 -0.45531464l0.20031738 -0.45531464l0.45300293 -1.5125198l0.32769775 -1.5440903l0.21496582 -1.5216904l0.03277588 -1.542511l-0.080322266 -1.5189285l-0.20544434 -1.5527191l-0.30664062 -1.4717789l-0.44335938 -1.5608444l-0.40576172 -1.0974045l-0.40551758 -1.0963593l-0.46240234 -1.0856171l-0.5076294 -1.0163193l-0.6201172 -0.9928818l-0.664978 -0.92476654l-0.8354492 -0.88925934l-0.43377686 -0.38195038l-0.50213623 -0.42649078l-0.4786377 -0.31384277l-0.1940918 -0.078186035l-0.2498169 -0.06549835l-0.23828125 -0.01020813l-0.23803711 -0.009170532z" fill-rule="evenodd"/><path stroke="#000000" stroke-width="1.0" stroke-linejoin="round" stroke-linecap="round" d="m654.32245 80.973976l-0.9837036 0.38237l-0.95080566 0.25688934l-2.0021362 0.5945816l-5.2717896 1.62957l0.9953613 2.510231l0.881958 2.5327682l0.71307373 2.569046l0.59906006 2.591713l0.47436523 2.5600128l0.3720703 2.6390076l0.20300293 2.67424l0.09008789 2.6988678l4.5427246 -0.59174347l2.1985474 -0.22193146l2.2096558 -0.16547394l1.019165 -0.21234894l0.42913818 -0.20696259l0.3157959 -0.18443298l0.34960938 -0.30901337l0.22399902 -0.3416214l0.20031738 -0.45531464l0.20031738 -0.45531464l0.45300293 -1.5125198l0.32769775 -1.5440903l0.21496582 -1.5216904l0.03277588 -1.542511l-0.080322266 -1.5189285l-0.20544434 -1.5527191l-0.30664062 -1.4717789l-0.44335938 -1.5608444l-0.40576172 -1.0974045l-0.40551758 -1.0963593l-0.46240234 -1.0856171l-0.5076294 -1.0163193l-0.6201172 -0.9928818l-0.664978 -0.92476654l-0.8354492 -0.88925934l-0.43377686 -0.38195038l-0.50213623 -0.42649078l-0.4786377 -0.31384277l-0.1940918 -0.078186035l-0.2498169 -0.06549835l-0.23828125 -0.01020813l-0.23803711 -0.009170532z" fill-rule="evenodd"/><path fill="#ffffff" d="m647.9383 79.528175l-16.564392 3.5694656l-16.574524 3.5127258l-0.5097656 0.1062088l-0.37304688 0.19574738l-0.31573486 0.18369293l-0.23632812 0.2855072l-0.16723633 0.33016205l-0.030578613 0.41960144l-0.018737793 0.47620392l0.11791992 0.56607056l4.550476 -1.125351l4.562256 -1.068634l9.090698 -2.0123138l4.5166626 -1.0001755l4.560547 -1.0684967l4.494873 -1.1134186l4.4694214 -1.2267151l-0.09429932 -0.45275116l-0.1281128 -0.32746887l-0.16027832 -0.20275879l-0.19232178 -0.077941895l-0.2498169 -0.06619263l-0.23791504 -0.009376526z" fill-rule="evenodd"/><path stroke="#000000" stroke-width="1.0" stroke-linejoin="round" stroke-linecap="round" d="m647.9383 79.528175l-16.564392 3.5694656l-16.574524 3.5127258l-0.5097656 0.1062088l-0.37304688 0.19574738l-0.31573486 0.18369293l-0.23632812 0.2855072l-0.16723633 0.33016205l-0.030578613 0.41960144l-0.018737793 0.47620392l0.11791992 0.56607056l4.550476 -1.125351l4.562256 -1.068634l9.090698 -2.0123138l4.5166626 -1.0001755l4.560547 -1.0684967l4.494873 -1.1134186l4.4694214 -1.2267151l-0.09429932 -0.45275116l-0.1281128 -0.32746887l-0.16027832 -0.20275879l-0.19232178 -0.077941895l-0.2498169 -0.06619263l-0.23791504 -0.009376526z" fill-rule="evenodd"/><path fill="#ffffff" d="m618.13763 112.55445l0.11791992 0.56598663l0.2076416 0.4292221l0.18408203 0.31616974l0.28546143 0.23583984l0.31774902 0.111061096l0.42077637 0.030281067l0.40734863 -0.025886536l0.5223999 -0.049560547l10.472473 -2.1820984l10.541809 -2.1375504l13.246582 -2.7601242l-0.021118164 -1.2358932l-4.6571045 0.61585236l-4.619995 0.7853775l-4.552368 0.8304825l-4.5980225 0.899086l-9.125244 1.8420868l-4.5405273 0.88710785l-4.6098633 0.8425598z" fill-rule="evenodd"/><path stroke="#000000" stroke-width="1.0" stroke-linejoin="round" stroke-linecap="round" d="m618.13763 112.55445l0.11791992 0.56598663l0.2076416 0.4292221l0.18408203 0.31616974l0.28546143 0.23583984l0.31774902 0.111061096l0.42077637 0.030281067l0.40734863 -0.025886536l0.5223999 -0.049560547l10.472473 -2.1820984l10.541809 -2.1375504l13.246582 -2.7601242l-0.021118164 -1.2358932l-4.6571045 0.61585236l-4.619995 0.7853775l-4.552368 0.8304825l-4.5980225 0.899086l-9.125244 1.8420868l-4.5405273 0.88710785l-4.6098633 0.8425598z" fill-rule="evenodd"/><path fill="#ffffff" d="m611.1122 87.910255l-0.6112671 0.18635559l-0.5541382 0.174469l-0.5991211 0.24282837l-0.5305786 0.28754425l-0.51916504 0.34416962l-0.461792 0.33350372l-0.43884277 0.44542694l-0.3821411 0.433609l-0.38189697 0.43483734l-0.30218506 0.53495026l-0.2565918 0.46774292l-0.23400879 0.57974243l-0.17669678 0.56907654l-0.10839844 0.6125717l-0.051818848 0.6020508l0.004699707 0.5889969l0.11779785 1.983963l0.1862793 2.028679l0.28796387 1.948494l0.35650635 1.9932175l0.4574585 1.9131775l0.526001 1.957901l0.57092285 1.889534l0.7411499 1.8540726l0.24267578 0.59840393l0.29974365 0.58781433l0.38897705 0.44992828l0.401062 0.50769806l0.44573975 0.43811035l0.49090576 0.37097168l0.49035645 0.369812l0.5237427 0.24613953l0.5916748 0.28970337l0.5687866 0.1764679l0.5566406 0.12130737l0.6130371 0.10825348l0.60162354 0.051635742l0.58947754 -0.004837036l0.57806396 -0.061447144l0.5541382 -0.174469l-0.1270752 -0.32750702l-0.11584473 -0.27212524l-0.17242432 -0.25907135l-0.21661377 -0.19085693l-0.27368164 -0.17896271l-0.30651855 -0.054122925l-0.31860352 -0.11190033l-0.40820312 0.026062012l-0.4196167 -0.030555725l-0.42004395 -0.03048706l-0.43139648 -0.08709717l-0.37506104 -0.098846436l-0.38684082 -0.15539551l-0.33032227 -0.16844177l-0.68408203 -0.44743347l-0.52593994 -0.54067993l-0.48132324 -0.608963l-0.33447266 -0.7562866l-0.22229004 -0.7809372l-1.5308838 -7.0647507l-1.4180908 -7.088249l-0.082458496 -0.39580536l-0.025634766 -0.4089203l0.030639648 -0.41937256l0.030639648 -0.41937256l0.19805908 -0.7505264l0.31115723 -0.77410126l0.40319824 -0.61499023l0.5285034 -0.58338165l0.3040161 -0.24034119l0.36108398 -0.2522354l0.37286377 -0.19568634l0.37249756 -0.19561768l0.3279419 -0.12731934l0.25915527 -0.17327881l0.24761963 -0.22859192l0.19122314 -0.21684265l0.065979004 -0.2497406l0.05456543 -0.30635834l-0.0028076172 -0.29569244l-0.0256958 -0.4076233z" fill-rule="evenodd"/><path stroke="#000000" stroke-width="1.0" stroke-linejoin="round" stroke-linecap="round" d="m611.1122 87.910255l-0.6112671 0.18635559l-0.5541382 0.174469l-0.5991211 0.24282837l-0.5305786 0.28754425l-0.51916504 0.34416962l-0.461792 0.33350372l-0.43884277 0.44542694l-0.3821411 0.433609l-0.38189697 0.43483734l-0.30218506 0.53495026l-0.2565918 0.46774292l-0.23400879 0.57974243l-0.17669678 0.56907654l-0.10839844 0.6125717l-0.051818848 0.6020508l0.004699707 0.5889969l0.11779785 1.983963l0.1862793 2.028679l0.28796387 1.948494l0.35650635 1.9932175l0.4574585 1.9131775l0.526001 1.957901l0.57092285 1.889534l0.7411499 1.8540726l0.24267578 0.59840393l0.29974365 0.58781433l0.38897705 0.44992828l0.401062 0.50769806l0.44573975 0.43811035l0.49090576 0.37097168l0.49035645 0.369812l0.5237427 0.24613953l0.5916748 0.28970337l0.5687866 0.1764679l0.5566406 0.12130737l0.6130371 0.10825348l0.60162354 0.051635742l0.58947754 -0.004837036l0.57806396 -0.061447144l0.5541382 -0.174469l-0.1270752 -0.32750702l-0.11584473 -0.27212524l-0.17242432 -0.25907135l-0.21661377 -0.19085693l-0.27368164 -0.17896271l-0.30651855 -0.054122925l-0.31860352 -0.11190033l-0.40820312 0.026062012l-0.4196167 -0.030555725l-0.42004395 -0.03048706l-0.43139648 -0.08709717l-0.37506104 -0.098846436l-0.38684082 -0.15539551l-0.33032227 -0.16844177l-0.68408203 -0.44743347l-0.52593994 -0.54067993l-0.48132324 -0.608963l-0.33447266 -0.7562866l-0.22229004 -0.7809372l-1.5308838 -7.0647507l-1.4180908 -7.088249l-0.082458496 -0.39580536l-0.025634766 -0.4089203l0.030639648 -0.41937256l0.030639648 -0.41937256l0.19805908 -0.7505264l0.31115723 -0.77410126l0.40319824 -0.61499023l0.5285034 -0.58338165l0.3040161 -0.24034119l0.36108398 -0.2522354l0.37286377 -0.19568634l0.37249756 -0.19561768l0.3279419 -0.12731934l0.25915527 -0.17327881l0.24761963 -0.22859192l0.19122314 -0.21684265l0.065979004 -0.2497406l0.05456543 -0.30635834l-0.0028076172 -0.29569244l-0.0256958 -0.4076233z" fill-rule="evenodd"/><path fill="#111111" d="m635.32025 92.96671l-0.32800293 0.12725067l-0.31585693 0.18398285l-0.3161621 0.18404388l-0.4951172 0.45767975l-0.48376465 0.51387787l-0.27789307 0.6487503l-0.2218628 0.6367264l-0.042419434 0.36335754l-0.042541504 0.36302185l0.026062012 0.4079895l0.14160156 0.679512l0.13903809 0.38445282l0.18395996 0.31583405l0.17224121 0.2593689l0.46948242 0.5519333l0.5020752 0.42697906l0.6605835 0.3346939l0.63671875 0.22183228l0.3633423 0.04246521l0.3630371 0.042526245l0.35150146 -0.014335632l0.7359619 -0.15335083l0.32800293 -0.12725067l0.31585693 -0.18398285l0.3157959 -0.18397522l0.5519409 -0.46951294l0.41516113 -0.5588379l0.34655762 -0.6037903l0.20996094 -0.6935196l0.05432129 -0.30656433l-0.013977051 -0.35126495l-0.026062012 -0.40798187l-0.014343262 -0.35152435l-0.1272583 -0.32798767l-0.13903809 -0.38446045l-0.12750244 -0.32759094l-0.184021 -0.3161621l-0.45770264 -0.49514008l-0.5706787 -0.4719391l-0.59191895 -0.2897339l-0.6935425 -0.20999908l-0.3630371 -0.042533875l-0.3630371 -0.042526245l-0.35150146 0.014335632z" fill-rule="evenodd"/><path stroke="#000000" stroke-width="1.0" stroke-linejoin="round" stroke-linecap="round" d="m635.32025 92.96671l-0.32800293 0.12725067l-0.31585693 0.18398285l-0.3161621 0.18404388l-0.4951172 0.45767975l-0.48376465 0.51387787l-0.27789307 0.6487503l-0.2218628 0.6367264l-0.042419434 0.36335754l-0.042541504 0.36302185l0.026062012 0.4079895l0.14160156 0.679512l0.13903809 0.38445282l0.18395996 0.31583405l0.17224121 0.2593689l0.46948242 0.5519333l0.5020752 0.42697906l0.6605835 0.3346939l0.63671875 0.22183228l0.3633423 0.04246521l0.3630371 0.042526245l0.35150146 -0.014335632l0.7359619 -0.15335083l0.32800293 -0.12725067l0.31585693 -0.18398285l0.3157959 -0.18397522l0.5519409 -0.46951294l0.41516113 -0.5588379l0.34655762 -0.6037903l0.20996094 -0.6935196l0.05432129 -0.30656433l-0.013977051 -0.35126495l-0.026062012 -0.40798187l-0.014343262 -0.35152435l-0.1272583 -0.32798767l-0.13903809 -0.38446045l-0.12750244 -0.32759094l-0.184021 -0.3161621l-0.45770264 -0.49514008l-0.5706787 -0.4719391l-0.59191895 -0.2897339l-0.6935425 -0.20999908l-0.3630371 -0.042533875l-0.3630371 -0.042526245l-0.35150146 0.014335632z" fill-rule="evenodd"/><path fill="#000000" fill-opacity="0.0" d="m675.20215 88.746086c35.44879 0 53.173218 5.1181107 70.897644 10.236221c17.724365 5.1181107 35.44879 10.236221 70.897644 10.236221" fill-rule="evenodd"/><path stroke="#785ef0" stroke-width="3.0" stroke-linejoin="round" stroke-linecap="butt" stroke-dasharray="12.0,9.0" d="m675.20215 88.746086c35.44879 0 53.173157 5.1181107 70.89758 10.236221c8.862183 2.5590515 17.724426 5.118103 28.802185 7.0373993c5.5388794 0.95964813 11.631653 1.759346 18.555298 2.3191452c1.730835 0.13994598 3.5136719 0.26490784 5.352722 0.37361145l0.1942749 0.01096344" fill-rule="evenodd"/><path fill="#785ef0" stroke="#785ef0" stroke-width="3.0" stroke-linecap="butt" d="m798.8679 113.67675l13.745422 -4.5788574l-13.472839 -5.3277893z" fill-rule="evenodd"/><path fill="#785ef0" d="m272.8645 108.6945l0 0c0 -4.035591 3.271515 -7.307083 7.3070984 -7.307083l0 0c1.9379578 0 3.7965393 0.7698517 5.1669006 2.1401978c1.3703308 1.3703384 2.1401978 3.2289276 2.1401978 5.1668854l0 0c0 4.035591 -3.271515 7.3070908 -7.3070984 7.3070908l0 0c-4.0355835 0 -7.3070984 -3.2714996 -7.3070984 -7.3070908z" fill-rule="evenodd"/><path stroke="#000000" stroke-width="1.0" stroke-linejoin="round" stroke-linecap="butt" d="m272.8645 108.6945l0 0c0 -4.035591 3.271515 -7.307083 7.3070984 -7.307083l0 0c1.9379578 0 3.7965393 0.7698517 5.1669006 2.1401978c1.3703308 1.3703384 2.1401978 3.2289276 2.1401978 5.1668854l0 0c0 4.035591 -3.271515 7.3070908 -7.3070984 7.3070908l0 0c-4.0355835 0 -7.3070984 -3.2714996 -7.3070984 -7.3070908z" fill-rule="evenodd"/><path fill="#785ef0" d="m816.99744 109.21853l0 0c0 -4.035591 3.2714844 -7.3070908 7.307068 -7.3070908l0 0c1.9379272 0 3.7965698 0.7698517 5.16687 2.1401978c1.3703613 1.3703461 2.1401978 3.2289352 2.1401978 5.166893l0 0c0 4.035591 -3.2714844 7.307083 -7.307068 7.307083l0 0c-4.0355835 0 -7.307068 -3.271492 -7.307068 -7.307083z" fill-rule="evenodd"/><path stroke="#000000" stroke-width="1.0" stroke-linejoin="round" stroke-linecap="butt" d="m816.99744 109.21853l0 0c0 -4.035591 3.2714844 -7.3070908 7.307068 -7.3070908l0 0c1.9379272 0 3.7965698 0.7698517 5.16687 2.1401978c1.3703613 1.3703461 2.1401978 3.2289352 2.1401978 5.166893l0 0c0 4.035591 -3.2714844 7.307083 -7.307068 7.307083l0 0c-4.0355835 0 -7.307068 -3.271492 -7.307068 -7.307083z" fill-rule="evenodd"/><path fill="#ffffff" d="m667.1212 40.414883l126.519714 0l0 26.299213l-126.519714 0z" fill-rule="evenodd"/><path fill="#cc0000" d="m701.4537 51.524487l0 -5.53125l-1.96875 0l0 -0.6875l4.71875 0l0 0.6875l-1.96875 0l0 5.53125l-0.78125 0zm2.9612427 0l0 -4.5l0.703125 0l0 0.71875q0.625 -0.8125 1.5 -0.8125l0 0.71875l-0.28125 -0.03125q-0.328125 0 -0.703125 0.234375q-0.375 0.21875 -0.515625 0.484375l0 3.1875l-0.703125 0zm5.890747 0l0 -0.515625q-0.5625 0.625 -1.484375 0.625q-0.6875 0 -1.140625 -0.421875q-0.4375 -0.4375 -0.4375 -1.0625q0 -0.65625 0.4375 -1.0625q0.4375 -0.421875 1.140625 -0.421875q0.96875 0 1.484375 0.609375l0 -0.8125q0 -0.453125 -0.328125 -0.703125q-0.3125 -0.25 -0.8125 -0.25q-0.796875 0 -1.375 0.625l-0.328125 -0.484375q0.71875 -0.75 1.796875 -0.75q0.828125 0 1.28125 0.40625q0.46875 0.40625 0.46875 1.125l0 3.09375l-0.703125 0zm-1.234375 -0.390625q0.828125 0 1.234375 -0.5625l0 -0.84375q-0.40625 -0.5625 -1.234375 -0.5625q-0.5 0 -0.8125 0.28125q-0.296875 0.265625 -0.296875 0.703125q0 0.4375 0.296875 0.71875q0.3125 0.265625 0.8125 0.265625zm3.6815796 -4.765625q-0.1875 0 -0.328125 -0.125q-0.140625 -0.140625 -0.140625 -0.328125q0 -0.203125 0.140625 -0.34375q0.140625 -0.140625 0.328125 -0.140625q0.1875 0 0.328125 0.140625q0.140625 0.140625 0.140625 0.34375q0 0.1875 -0.140625 0.328125q-0.140625 0.125 -0.328125 0.125zm-0.984375 6.984375q-0.34375 0 -0.546875 -0.09375q-0.21875 -0.078125 -0.4375 -0.234375l0.25 -0.546875q0.296875 0.296875 0.640625 0.296875q0.734375 0 0.734375 -0.8125l0 -4.9375l0.703125 0l0 4.9375q0 0.671875 -0.359375 1.03125q-0.34375 0.359375 -0.984375 0.359375zm4.770691 -1.71875q-1.015625 0 -1.65625 -0.65625q-0.640625 -0.671875 -0.640625 -1.703125q0 -1.0 0.625 -1.6875q0.640625 -0.6875 1.59375 -0.6875q0.96875 0 1.5625 0.671875q0.609375 0.671875 0.609375 1.75l0 0.171875l-3.65625 0q0.046875 0.703125 0.5 1.140625q0.46875 0.421875 1.125 0.421875q0.828125 0 1.390625 -0.5625l0.34375 0.453125q-0.703125 0.6875 -1.796875 0.6875zm1.390625 -2.640625q0 -0.625 -0.40625 -1.0625q-0.40625 -0.453125 -1.0625 -0.453125q-0.625 0 -1.046875 0.453125q-0.421875 0.4375 -0.4375 1.0625l2.953125 0zm3.814209 2.640625q-0.984375 0 -1.625 -0.671875q-0.625 -0.671875 -0.625 -1.6875q0 -1.03125 0.625 -1.703125q0.640625 -0.671875 1.625 -0.671875q1.046875 0 1.65625 0.796875l-0.46875 0.421875q-0.4375 -0.59375 -1.15625 -0.59375q-0.6875 0 -1.125 0.484375q-0.421875 0.484375 -0.421875 1.265625q0 0.78125 0.421875 1.265625q0.4375 0.46875 1.125 0.46875q0.71875 0 1.15625 -0.578125l0.46875 0.421875q-0.609375 0.78125 -1.65625 0.78125zm3.7736816 0q-1.0 0 -1.0 -1.046875l0 -2.953125l-0.75 0l0 -0.609375l0.75 0l0 -1.234375l0.703125 0l0 1.234375l0.90625 0l0 0.609375l-0.90625 0l0 2.796875q0 0.25 0.109375 0.421875q0.109375 0.15625 0.34375 0.15625q0.28125 0 0.46875 -0.1875l0.203125 0.53125q-0.28125 0.28125 -0.828125 0.28125zm3.5706177 0q-0.984375 0 -1.609375 -0.65625q-0.625 -0.671875 -0.625 -1.703125q0 -1.046875 0.625 -1.703125q0.625 -0.671875 1.609375 -0.671875q0.96875 0 1.59375 0.671875q0.625 0.65625 0.625 1.703125q0 1.03125 -0.625 1.703125q-0.625 0.65625 -1.59375 0.65625zm0 -0.625q0.65625 0 1.0625 -0.484375q0.421875 -0.5 0.421875 -1.25q0 -0.765625 -0.421875 -1.25q-0.40625 -0.5 -1.0625 -0.5q-0.65625 0 -1.078125 0.5q-0.421875 0.484375 -0.421875 1.25q0 0.765625 0.40625 1.25q0.421875 0.484375 1.09375 0.484375zm3.3669434 0.515625l0 -4.5l0.703125 0l0 0.71875q0.625 -0.8125 1.5 -0.8125l0 0.71875l-0.28125 -0.03125q-0.328125 0 -0.703125 0.234375q-0.375 0.21875 -0.515625 0.484375l0 3.1875l-0.703125 0zm2.937622 1.125q0.140625 0.078125 0.375 0.078125q0.234375 0 0.390625 -0.109375q0.171875 -0.09375 0.28125 -0.359375l0.296875 -0.6875l-1.875 -4.546875l0.75 0l1.5 3.6875l1.5 -3.6875l0.765625 0l-2.265625 5.421875q-0.375 0.890625 -1.328125 0.90625q-0.265625 0 -0.5 -0.0625l0.109375 -0.640625zm11.586853 -1.125l-0.546875 -1.375l-3.109375 0l-0.546875 1.375l-0.890625 0l2.5 -6.21875l0.96875 0l2.5 6.21875l-0.875 0zm-2.109375 -5.421875l-1.3125 3.34375l2.640625 0l-1.328125 -3.34375zm3.882019 5.421875l0 -3.890625l-0.734375 0l0 -0.609375l0.734375 0l0 -0.34375q0 -0.703125 0.34375 -1.078125q0.359375 -0.390625 0.96875 -0.390625q0.5625 0 0.953125 0.34375l-0.296875 0.453125q-0.234375 -0.21875 -0.5625 -0.21875q-0.703125 0 -0.703125 0.890625l0 0.34375l0.921875 0l0 0.609375l-0.921875 0l0 3.890625l-0.703125 0zm3.5929565 0.109375q-1.0 0 -1.0 -1.046875l0 -2.953125l-0.75 0l0 -0.609375l0.75 0l0 -1.234375l0.703125 0l0 1.234375l0.90625 0l0 0.609375l-0.90625 0l0 2.796875q0 0.25 0.109375 0.421875q0.109375 0.15625 0.34375 0.15625q0.28125 0 0.46875 -0.1875l0.203125 0.53125q-0.28125 0.28125 -0.828125 0.28125zm3.6331177 0q-1.015625 0 -1.65625 -0.65625q-0.640625 -0.671875 -0.640625 -1.703125q0 -1.0 0.625 -1.6875q0.640625 -0.6875 1.59375 -0.6875q0.96875 0 1.5625 0.671875q0.609375 0.671875 0.609375 1.75l0 0.171875l-3.65625 0q0.046875 0.703125 0.5 1.140625q0.46875 0.421875 1.125 0.421875q0.828125 0 1.390625 -0.5625l0.34375 0.453125q-0.703125 0.6875 -1.796875 0.6875zm1.390625 -2.640625q0 -0.625 -0.40625 -1.0625q-0.40625 -0.453125 -1.0625 -0.453125q-0.625 0 -1.046875 0.453125q-0.421875 0.4375 -0.4375 1.0625l2.953125 0zm1.829834 2.53125l0 -4.5l0.703125 0l0 0.71875q0.625 -0.8125 1.5 -0.8125l0 0.71875l-0.28125 -0.03125q-0.328125 0 -0.703125 0.234375q-0.375 0.21875 -0.515625 0.484375l0 3.1875l-0.703125 0z" fill-rule="nonzero"/><path fill="#cc0000" d="m705.9949 62.524487l0 -6.21875l2.5 0q0.875 0 1.40625 0.53125q0.53125 0.53125 0.53125 1.34375q0 0.8125 -0.546875 1.34375q-0.53125 0.53125 -1.390625 0.53125l-1.734375 0l0 2.46875l-0.765625 0zm2.40625 -3.15625q0.546875 0 0.890625 -0.328125q0.34375 -0.328125 0.34375 -0.859375q0 -0.53125 -0.34375 -0.859375q-0.34375 -0.328125 -0.890625 -0.328125l-1.640625 0l0 2.375l1.640625 0zm4.947998 3.265625q-1.015625 0 -1.65625 -0.65625q-0.640625 -0.671875 -0.640625 -1.703125q0 -1.0 0.625 -1.6875q0.640625 -0.6875 1.59375 -0.6875q0.96875 0 1.5625 0.671875q0.609375 0.671875 0.609375 1.75l0 0.171875l-3.65625 0q0.046875 0.703125 0.5 1.140625q0.46875 0.421875 1.125 0.421875q0.828125 0 1.390625 -0.5625l0.34375 0.453125q-0.703125 0.6875 -1.796875 0.6875zm1.390625 -2.640625q0 -0.625 -0.40625 -1.0625q-0.40625 -0.453125 -1.0625 -0.453125q-0.625 0 -1.046875 0.453125q-0.421875 0.4375 -0.4375 1.0625l2.953125 0zm1.829895 2.53125l0 -4.5l0.703125 0l0 0.71875q0.625 -0.8125 1.5 -0.8125l0 0.71875l-0.28125 -0.03125q-0.328125 0 -0.703125 0.234375q-0.375 0.21875 -0.515625 0.484375l0 3.1875l-0.703125 0zm4.218872 0.109375q-1.0 0 -1.0 -1.046875l0 -2.953125l-0.75 0l0 -0.609375l0.75 0l0 -1.234375l0.703125 0l0 1.234375l0.90625 0l0 0.609375l-0.90625 0l0 2.796875q0 0.25 0.109375 0.421875q0.109375 0.15625 0.34375 0.15625q0.28125 0 0.46875 -0.1875l0.203125 0.53125q-0.28125 0.28125 -0.828125 0.28125zm4.6331177 -0.109375l0 -0.640625q-0.25 0.3125 -0.671875 0.53125q-0.421875 0.21875 -0.921875 0.21875q-1.4375 0 -1.4375 -1.4375l0 -3.171875l0.703125 0l0 2.953125q0 0.546875 0.234375 0.796875q0.25 0.234375 0.765625 0.234375q0.40625 0 0.765625 -0.203125q0.375 -0.203125 0.5625 -0.46875l0 -3.3125l0.703125 0l0 4.5l-0.703125 0zm2.1085205 0l0 -4.5l0.703125 0l0 0.71875q0.625 -0.8125 1.5 -0.8125l0 0.71875l-0.28125 -0.03125q-0.328125 0 -0.703125 0.234375q-0.375 0.21875 -0.515625 0.484375l0 3.1875l-0.703125 0zm3.781433 -1.21875q0.171875 0.296875 0.546875 0.5q0.375 0.203125 0.796875 0.203125q0.65625 0 1.046875 -0.46875q0.40625 -0.484375 0.40625 -1.265625q0 -0.78125 -0.390625 -1.265625q-0.390625 -0.484375 -1.0625 -0.484375q-0.421875 0 -0.796875 0.21875q-0.375 0.21875 -0.546875 0.515625l0 2.046875zm-0.703125 1.21875l0 -6.21875l0.703125 0l0 2.390625q0.578125 -0.796875 1.515625 -0.796875q0.890625 0 1.4375 0.65625q0.5625 0.65625 0.5625 1.71875q0 1.078125 -0.5625 1.71875q-0.546875 0.640625 -1.4375 0.640625q-0.484375 0 -0.875 -0.21875q-0.390625 -0.21875 -0.640625 -0.5625l0 0.671875l-0.703125 0zm8.176147 0l0 -0.515625q-0.5625 0.625 -1.484375 0.625q-0.6875 0 -1.140625 -0.421875q-0.4375 -0.4375 -0.4375 -1.0625q0 -0.65625 0.4375 -1.0625q0.4375 -0.421875 1.140625 -0.421875q0.96875 0 1.484375 0.609375l0 -0.8125q0 -0.453125 -0.328125 -0.703125q-0.3125 -0.25 -0.8125 -0.25q-0.796875 0 -1.375 0.625l-0.328125 -0.484375q0.71875 -0.75 1.796875 -0.75q0.828125 0 1.28125 0.40625q0.46875 0.40625 0.46875 1.125l0 3.09375l-0.703125 0zm-1.234375 -0.390625q0.828125 0 1.234375 -0.5625l0 -0.84375q-0.40625 -0.5625 -1.234375 -0.5625q-0.5 0 -0.8125 0.28125q-0.296875 0.265625 -0.296875 0.703125q0 0.4375 0.296875 0.71875q0.3125 0.265625 0.8125 0.265625zm4.4784546 0.5q-1.0 0 -1.0 -1.046875l0 -2.953125l-0.75 0l0 -0.609375l0.75 0l0 -1.234375l0.703125 0l0 1.234375l0.90625 0l0 0.609375l-0.90625 0l0 2.796875q0 0.25 0.109375 0.421875q0.109375 0.15625 0.34375 0.15625q0.28125 0 0.46875 -0.1875l0.203125 0.53125q-0.28125 0.28125 -0.828125 0.28125zm1.9455566 -5.265625q-0.1875 0 -0.328125 -0.125q-0.140625 -0.140625 -0.140625 -0.328125q0 -0.203125 0.140625 -0.34375q0.140625 -0.140625 0.328125 -0.140625q0.1875 0 0.328125 0.140625q0.140625 0.140625 0.140625 0.34375q0 0.1875 -0.140625 0.328125q-0.140625 0.125 -0.328125 0.125zm-0.34375 5.15625l0 -4.5l0.703125 0l0 4.5l-0.703125 0zm4.067566 0.109375q-0.984375 0 -1.609375 -0.65625q-0.625 -0.671875 -0.625 -1.703125q0 -1.046875 0.625 -1.703125q0.625 -0.671875 1.609375 -0.671875q0.96875 0 1.59375 0.671875q0.625 0.65625 0.625 1.703125q0 1.03125 -0.625 1.703125q-0.625 0.65625 -1.59375 0.65625zm0 -0.625q0.65625 0 1.0625 -0.484375q0.421875 -0.5 0.421875 -1.25q0 -0.765625 -0.421875 -1.25q-0.40625 -0.5 -1.0625 -0.5q-0.65625 0 -1.078125 0.5q-0.421875 0.484375 -0.421875 1.25q0 0.765625 0.40625 1.25q0.421875 0.484375 1.09375 0.484375zm6.3981934 0.515625l0 -2.953125q0 -0.59375 -0.28125 -0.8125q-0.265625 -0.234375 -0.71875 -0.234375q-0.390625 0 -0.78125 0.21875q-0.375 0.203125 -0.546875 0.484375l0 3.296875l-0.703125 0l0 -4.5l0.703125 0l0 0.640625q0.28125 -0.328125 0.703125 -0.546875q0.421875 -0.21875 0.890625 -0.21875q1.4375 0 1.4375 1.46875l0 3.15625l-0.703125 0z" fill-rule="nonzero"/><path fill="#000000" fill-opacity="0.0" d="m730.3871 63.823338l-0.15753174 36.66142" fill-rule="evenodd"/><path stroke="#ffffff" stroke-width="2.0" stroke-linejoin="round" stroke-linecap="butt" d="m730.3871 63.823338l-0.124938965 29.081486" fill-rule="evenodd"/><path fill="#ffffff" stroke="#ffffff" stroke-width="2.0" stroke-linecap="butt" d="m730.2339 99.484764c-1.8170166 -0.0078048706 -3.2836304 -1.4870987 -3.275879 -3.3041c0.0078125 -1.8170013 1.4871216 -3.2836456 3.3041382 -3.2758408c1.8170166 0.0078048706 3.2836304 1.4871063 3.2758179 3.3041c-0.0078125 1.8170013 -1.4871216 3.2836456 -3.3040771 3.2758408z" fill-rule="nonzero"/></g></svg>